ISO-10303-21;
HEADER;
/* Generated by software containing ST-Developer
 * from STEP Tools, Inc. (www.steptools.com) 
 */

FILE_DESCRIPTION(
/* description */ (''),
/* implementation_level */ '2;1');

FILE_NAME(
/* name */ 'Filament Guillotine-Housing.step',
/* time_stamp */ '2026-09-10T19:11:05-04:00',
/* author */ (''),
/* organization */ (''),
/* preprocessor_version */ 'ST-DEVELOPER v20.2',
/* originating_system */ 'Autodesk Translation Framework v15.15.0.0',
/* authorisation */ '');

FILE_SCHEMA (('AUTOMOTIVE_DESIGN { 1 0 10303 214 3 1 1 }'));
ENDSEC;

DATA;
#10=MECHANICAL_DESIGN_GEOMETRIC_PRESENTATION_REPRESENTATION('',(#13),#892);
#11=SHAPE_REPRESENTATION_RELATIONSHIP('SRR','None',#898,#12);
#12=ADVANCED_BREP_SHAPE_REPRESENTATION('',(#14),#891);
#13=STYLED_ITEM('',(#913),#14);
#14=MANIFOLD_SOLID_BREP('Housing (2) (2)',#552);
#15=CIRCLE('',#566,1.15);
#16=CIRCLE('',#567,1.15);
#17=CIRCLE('',#574,1.55);
#18=CIRCLE('',#575,1.55);
#19=CIRCLE('',#579,1.55);
#20=CIRCLE('',#580,1.55);
#21=CIRCLE('',#582,2.45);
#22=CIRCLE('',#583,2.45);
#23=CIRCLE('',#585,2.45);
#24=CIRCLE('',#586,2.45);
#25=CYLINDRICAL_SURFACE('',#565,1.15);
#26=CYLINDRICAL_SURFACE('',#573,1.55);
#27=CYLINDRICAL_SURFACE('',#578,1.55);
#28=CYLINDRICAL_SURFACE('',#581,2.45);
#29=CYLINDRICAL_SURFACE('',#584,2.45);
#30=FACE_BOUND('',#69,.T.);
#31=FACE_BOUND('',#71,.T.);
#32=FACE_BOUND('',#78,.T.);
#33=FACE_BOUND('',#81,.T.);
#34=FACE_BOUND('',#95,.T.);
#35=FACE_OUTER_BOUND('',#63,.T.);
#36=FACE_OUTER_BOUND('',#64,.T.);
#37=FACE_OUTER_BOUND('',#65,.T.);
#38=FACE_OUTER_BOUND('',#66,.T.);
#39=FACE_OUTER_BOUND('',#67,.T.);
#40=FACE_OUTER_BOUND('',#68,.T.);
#41=FACE_OUTER_BOUND('',#70,.T.);
#42=FACE_OUTER_BOUND('',#72,.T.);
#43=FACE_OUTER_BOUND('',#73,.T.);
#44=FACE_OUTER_BOUND('',#74,.T.);
#45=FACE_OUTER_BOUND('',#75,.T.);
#46=FACE_OUTER_BOUND('',#76,.T.);
#47=FACE_OUTER_BOUND('',#77,.T.);
#48=FACE_OUTER_BOUND('',#79,.T.);
#49=FACE_OUTER_BOUND('',#80,.T.);
#50=FACE_OUTER_BOUND('',#82,.T.);
#51=FACE_OUTER_BOUND('',#83,.T.);
#52=FACE_OUTER_BOUND('',#84,.T.);
#53=FACE_OUTER_BOUND('',#85,.T.);
#54=FACE_OUTER_BOUND('',#86,.T.);
#55=FACE_OUTER_BOUND('',#87,.T.);
#56=FACE_OUTER_BOUND('',#88,.T.);
#57=FACE_OUTER_BOUND('',#89,.T.);
#58=FACE_OUTER_BOUND('',#90,.T.);
#59=FACE_OUTER_BOUND('',#91,.T.);
#60=FACE_OUTER_BOUND('',#92,.T.);
#61=FACE_OUTER_BOUND('',#93,.T.);
#62=FACE_OUTER_BOUND('',#94,.T.);
#63=EDGE_LOOP('',(#351,#352,#353,#354));
#64=EDGE_LOOP('',(#355,#356,#357,#358));
#65=EDGE_LOOP('',(#359,#360,#361,#362));
#66=EDGE_LOOP('',(#363,#364,#365,#366));
#67=EDGE_LOOP('',(#367,#368,#369,#370));
#68=EDGE_LOOP('',(#371,#372,#373,#374));
#69=EDGE_LOOP('',(#375,#376,#377,#378,#379,#380,#381,#382,#383,#384,#385,
#386));
#70=EDGE_LOOP('',(#387,#388,#389,#390));
#71=EDGE_LOOP('',(#391,#392,#393,#394));
#72=EDGE_LOOP('',(#395,#396,#397,#398));
#73=EDGE_LOOP('',(#399,#400,#401,#402));
#74=EDGE_LOOP('',(#403,#404,#405,#406));
#75=EDGE_LOOP('',(#407,#408,#409,#410));
#76=EDGE_LOOP('',(#411,#412,#413,#414));
#77=EDGE_LOOP('',(#415,#416,#417,#418));
#78=EDGE_LOOP('',(#419));
#79=EDGE_LOOP('',(#420,#421,#422,#423));
#80=EDGE_LOOP('',(#424,#425,#426,#427));
#81=EDGE_LOOP('',(#428));
#82=EDGE_LOOP('',(#429,#430,#431,#432,#433,#434));
#83=EDGE_LOOP('',(#435,#436,#437,#438,#439,#440));
#84=EDGE_LOOP('',(#441,#442,#443,#444));
#85=EDGE_LOOP('',(#445,#446,#447,#448,#449,#450));
#86=EDGE_LOOP('',(#451,#452,#453,#454,#455,#456));
#87=EDGE_LOOP('',(#457,#458,#459,#460));
#88=EDGE_LOOP('',(#461,#462,#463,#464));
#89=EDGE_LOOP('',(#465,#466,#467,#468));
#90=EDGE_LOOP('',(#469,#470,#471,#472));
#91=EDGE_LOOP('',(#473,#474,#475,#476));
#92=EDGE_LOOP('',(#477,#478,#479,#480));
#93=EDGE_LOOP('',(#481,#482,#483,#484));
#94=EDGE_LOOP('',(#485,#486,#487,#488,#489,#490,#491,#492,#493,#494,#495,
#496));
#95=EDGE_LOOP('',(#497,#498,#499,#500));
#96=LINE('',#739,#161);
#97=LINE('',#741,#162);
#98=LINE('',#743,#163);
#99=LINE('',#744,#164);
#100=LINE('',#748,#165);
#101=LINE('',#750,#166);
#102=LINE('',#752,#167);
#103=LINE('',#753,#168);
#104=LINE('',#757,#169);
#105=LINE('',#759,#170);
#106=LINE('',#761,#171);
#107=LINE('',#762,#172);
#108=LINE('',#766,#173);
#109=LINE('',#768,#174);
#110=LINE('',#770,#175);
#111=LINE('',#771,#176);
#112=LINE('',#773,#177);
#113=LINE('',#774,#178);
#114=LINE('',#776,#179);
#115=LINE('',#778,#180);
#116=LINE('',#780,#181);
#117=LINE('',#782,#182);
#118=LINE('',#784,#183);
#119=LINE('',#786,#184);
#120=LINE('',#788,#185);
#121=LINE('',#790,#186);
#122=LINE('',#792,#187);
#123=LINE('',#793,#188);
#124=LINE('',#794,#189);
#125=LINE('',#796,#190);
#126=LINE('',#799,#191);
#127=LINE('',#801,#192);
#128=LINE('',#803,#193);
#129=LINE('',#804,#194);
#130=LINE('',#807,#195);
#131=LINE('',#809,#196);
#132=LINE('',#810,#197);
#133=LINE('',#813,#198);
#134=LINE('',#814,#199);
#135=LINE('',#817,#200);
#136=LINE('',#818,#201);
#137=LINE('',#820,#202);
#138=LINE('',#825,#203);
#139=LINE('',#828,#204);
#140=LINE('',#829,#205);
#141=LINE('',#835,#206);
#142=LINE('',#836,#207);
#143=LINE('',#838,#208);
#144=LINE('',#840,#209);
#145=LINE('',#841,#210);
#146=LINE('',#845,#211);
#147=LINE('',#847,#212);
#148=LINE('',#849,#213);
#149=LINE('',#850,#214);
#150=LINE('',#851,#215);
#151=LINE('',#858,#216);
#152=LINE('',#859,#217);
#153=LINE('',#861,#218);
#154=LINE('',#863,#219);
#155=LINE('',#864,#220);
#156=LINE('',#868,#221);
#157=LINE('',#870,#222);
#158=LINE('',#872,#223);
#159=LINE('',#873,#224);
#160=LINE('',#874,#225);
#161=VECTOR('',#596,10.);
#162=VECTOR('',#597,10.);
#163=VECTOR('',#598,10.);
#164=VECTOR('',#599,10.);
#165=VECTOR('',#602,10.);
#166=VECTOR('',#603,10.);
#167=VECTOR('',#604,10.);
#168=VECTOR('',#605,10.);
#169=VECTOR('',#608,10.);
#170=VECTOR('',#609,10.);
#171=VECTOR('',#610,10.);
#172=VECTOR('',#611,10.);
#173=VECTOR('',#614,10.);
#174=VECTOR('',#615,10.);
#175=VECTOR('',#616,10.);
#176=VECTOR('',#617,10.);
#177=VECTOR('',#620,10.);
#178=VECTOR('',#621,10.);
#179=VECTOR('',#624,10.);
#180=VECTOR('',#625,10.);
#181=VECTOR('',#626,10.);
#182=VECTOR('',#627,10.);
#183=VECTOR('',#628,10.);
#184=VECTOR('',#629,10.);
#185=VECTOR('',#630,10.);
#186=VECTOR('',#631,10.);
#187=VECTOR('',#632,10.);
#188=VECTOR('',#633,10.);
#189=VECTOR('',#634,10.);
#190=VECTOR('',#637,10.);
#191=VECTOR('',#638,10.);
#192=VECTOR('',#639,10.);
#193=VECTOR('',#640,10.);
#194=VECTOR('',#641,10.);
#195=VECTOR('',#644,10.);
#196=VECTOR('',#645,10.);
#197=VECTOR('',#646,10.);
#198=VECTOR('',#649,10.);
#199=VECTOR('',#650,10.);
#200=VECTOR('',#653,10.);
#201=VECTOR('',#654,10.);
#202=VECTOR('',#657,10.);
#203=VECTOR('',#662,1.15);
#204=VECTOR('',#667,10.);
#205=VECTOR('',#668,10.);
#206=VECTOR('',#675,10.);
#207=VECTOR('',#676,10.);
#208=VECTOR('',#677,10.);
#209=VECTOR('',#678,10.);
#210=VECTOR('',#679,10.);
#211=VECTOR('',#682,10.);
#212=VECTOR('',#683,10.);
#213=VECTOR('',#684,10.);
#214=VECTOR('',#685,10.);
#215=VECTOR('',#686,10.);
#216=VECTOR('',#695,10.);
#217=VECTOR('',#696,10.);
#218=VECTOR('',#697,10.);
#219=VECTOR('',#698,10.);
#220=VECTOR('',#699,10.);
#221=VECTOR('',#702,10.);
#222=VECTOR('',#703,10.);
#223=VECTOR('',#704,10.);
#224=VECTOR('',#705,10.);
#225=VECTOR('',#706,10.);
#226=VERTEX_POINT('',#737);
#227=VERTEX_POINT('',#738);
#228=VERTEX_POINT('',#740);
#229=VERTEX_POINT('',#742);
#230=VERTEX_POINT('',#746);
#231=VERTEX_POINT('',#747);
#232=VERTEX_POINT('',#749);
#233=VERTEX_POINT('',#751);
#234=VERTEX_POINT('',#755);
#235=VERTEX_POINT('',#756);
#236=VERTEX_POINT('',#758);
#237=VERTEX_POINT('',#760);
#238=VERTEX_POINT('',#764);
#239=VERTEX_POINT('',#765);
#240=VERTEX_POINT('',#767);
#241=VERTEX_POINT('',#769);
#242=VERTEX_POINT('',#777);
#243=VERTEX_POINT('',#779);
#244=VERTEX_POINT('',#781);
#245=VERTEX_POINT('',#783);
#246=VERTEX_POINT('',#785);
#247=VERTEX_POINT('',#787);
#248=VERTEX_POINT('',#789);
#249=VERTEX_POINT('',#791);
#250=VERTEX_POINT('',#797);
#251=VERTEX_POINT('',#798);
#252=VERTEX_POINT('',#800);
#253=VERTEX_POINT('',#802);
#254=VERTEX_POINT('',#806);
#255=VERTEX_POINT('',#808);
#256=VERTEX_POINT('',#812);
#257=VERTEX_POINT('',#816);
#258=VERTEX_POINT('',#822);
#259=VERTEX_POINT('',#824);
#260=VERTEX_POINT('',#833);
#261=VERTEX_POINT('',#834);
#262=VERTEX_POINT('',#837);
#263=VERTEX_POINT('',#839);
#264=VERTEX_POINT('',#843);
#265=VERTEX_POINT('',#844);
#266=VERTEX_POINT('',#846);
#267=VERTEX_POINT('',#848);
#268=VERTEX_POINT('',#856);
#269=VERTEX_POINT('',#857);
#270=VERTEX_POINT('',#860);
#271=VERTEX_POINT('',#862);
#272=VERTEX_POINT('',#866);
#273=VERTEX_POINT('',#867);
#274=VERTEX_POINT('',#869);
#275=VERTEX_POINT('',#871);
#276=EDGE_CURVE('',#226,#227,#96,.T.);
#277=EDGE_CURVE('',#227,#228,#97,.T.);
#278=EDGE_CURVE('',#229,#228,#98,.T.);
#279=EDGE_CURVE('',#229,#226,#99,.T.);
#280=EDGE_CURVE('',#230,#231,#100,.T.);
#281=EDGE_CURVE('',#232,#230,#101,.T.);
#282=EDGE_CURVE('',#232,#233,#102,.T.);
#283=EDGE_CURVE('',#231,#233,#103,.T.);
#284=EDGE_CURVE('',#234,#235,#104,.T.);
#285=EDGE_CURVE('',#235,#236,#105,.T.);
#286=EDGE_CURVE('',#236,#237,#106,.T.);
#287=EDGE_CURVE('',#237,#234,#107,.T.);
#288=EDGE_CURVE('',#238,#239,#108,.T.);
#289=EDGE_CURVE('',#240,#239,#109,.T.);
#290=EDGE_CURVE('',#240,#241,#110,.T.);
#291=EDGE_CURVE('',#238,#241,#111,.T.);
#292=EDGE_CURVE('',#230,#240,#112,.T.);
#293=EDGE_CURVE('',#241,#231,#113,.T.);
#294=EDGE_CURVE('',#239,#232,#114,.T.);
#295=EDGE_CURVE('',#229,#242,#115,.T.);
#296=EDGE_CURVE('',#242,#243,#116,.T.);
#297=EDGE_CURVE('',#243,#244,#117,.T.);
#298=EDGE_CURVE('',#244,#245,#118,.T.);
#299=EDGE_CURVE('',#245,#246,#119,.T.);
#300=EDGE_CURVE('',#246,#247,#120,.T.);
#301=EDGE_CURVE('',#247,#248,#121,.T.);
#302=EDGE_CURVE('',#248,#249,#122,.T.);
#303=EDGE_CURVE('',#249,#234,#123,.T.);
#304=EDGE_CURVE('',#237,#226,#124,.T.);
#305=EDGE_CURVE('',#233,#238,#125,.T.);
#306=EDGE_CURVE('',#250,#251,#126,.T.);
#307=EDGE_CURVE('',#251,#252,#127,.T.);
#308=EDGE_CURVE('',#252,#253,#128,.T.);
#309=EDGE_CURVE('',#253,#250,#129,.T.);
#310=EDGE_CURVE('',#254,#252,#130,.T.);
#311=EDGE_CURVE('',#255,#254,#131,.T.);
#312=EDGE_CURVE('',#255,#253,#132,.T.);
#313=EDGE_CURVE('',#256,#255,#133,.T.);
#314=EDGE_CURVE('',#256,#250,#134,.T.);
#315=EDGE_CURVE('',#257,#256,#135,.T.);
#316=EDGE_CURVE('',#257,#251,#136,.T.);
#317=EDGE_CURVE('',#254,#257,#137,.T.);
#318=EDGE_CURVE('',#258,#258,#15,.T.);
#319=EDGE_CURVE('',#258,#259,#138,.T.);
#320=EDGE_CURVE('',#259,#259,#16,.T.);
#321=EDGE_CURVE('',#228,#235,#139,.T.);
#322=EDGE_CURVE('',#236,#227,#140,.T.);
#323=EDGE_CURVE('',#260,#261,#141,.T.);
#324=EDGE_CURVE('',#260,#243,#142,.T.);
#325=EDGE_CURVE('',#262,#242,#143,.T.);
#326=EDGE_CURVE('',#262,#263,#144,.T.);
#327=EDGE_CURVE('',#261,#263,#145,.T.);
#328=EDGE_CURVE('',#264,#265,#146,.T.);
#329=EDGE_CURVE('',#266,#264,#147,.T.);
#330=EDGE_CURVE('',#267,#266,#148,.T.);
#331=EDGE_CURVE('',#245,#267,#149,.T.);
#332=EDGE_CURVE('',#244,#265,#150,.T.);
#333=EDGE_CURVE('',#263,#266,#17,.T.);
#334=EDGE_CURVE('',#267,#262,#18,.T.);
#335=EDGE_CURVE('',#268,#269,#151,.T.);
#336=EDGE_CURVE('',#268,#247,#152,.T.);
#337=EDGE_CURVE('',#270,#246,#153,.T.);
#338=EDGE_CURVE('',#270,#271,#154,.T.);
#339=EDGE_CURVE('',#269,#271,#155,.T.);
#340=EDGE_CURVE('',#272,#273,#156,.T.);
#341=EDGE_CURVE('',#274,#272,#157,.T.);
#342=EDGE_CURVE('',#275,#274,#158,.T.);
#343=EDGE_CURVE('',#249,#275,#159,.T.);
#344=EDGE_CURVE('',#248,#273,#160,.T.);
#345=EDGE_CURVE('',#271,#274,#19,.T.);
#346=EDGE_CURVE('',#275,#270,#20,.T.);
#347=EDGE_CURVE('',#265,#260,#21,.T.);
#348=EDGE_CURVE('',#264,#261,#22,.T.);
#349=EDGE_CURVE('',#273,#268,#23,.T.);
#350=EDGE_CURVE('',#272,#269,#24,.T.);
#351=ORIENTED_EDGE('',*,*,#276,.T.);
#352=ORIENTED_EDGE('',*,*,#277,.T.);
#353=ORIENTED_EDGE('',*,*,#278,.F.);
#354=ORIENTED_EDGE('',*,*,#279,.T.);
#355=ORIENTED_EDGE('',*,*,#280,.F.);
#356=ORIENTED_EDGE('',*,*,#281,.F.);
#357=ORIENTED_EDGE('',*,*,#282,.T.);
#358=ORIENTED_EDGE('',*,*,#283,.F.);
#359=ORIENTED_EDGE('',*,*,#284,.T.);
#360=ORIENTED_EDGE('',*,*,#285,.T.);
#361=ORIENTED_EDGE('',*,*,#286,.T.);
#362=ORIENTED_EDGE('',*,*,#287,.T.);
#363=ORIENTED_EDGE('',*,*,#288,.T.);
#364=ORIENTED_EDGE('',*,*,#289,.F.);
#365=ORIENTED_EDGE('',*,*,#290,.T.);
#366=ORIENTED_EDGE('',*,*,#291,.F.);
#367=ORIENTED_EDGE('',*,*,#292,.F.);
#368=ORIENTED_EDGE('',*,*,#280,.T.);
#369=ORIENTED_EDGE('',*,*,#293,.F.);
#370=ORIENTED_EDGE('',*,*,#290,.F.);
#371=ORIENTED_EDGE('',*,*,#292,.T.);
#372=ORIENTED_EDGE('',*,*,#289,.T.);
#373=ORIENTED_EDGE('',*,*,#294,.T.);
#374=ORIENTED_EDGE('',*,*,#281,.T.);
#375=ORIENTED_EDGE('',*,*,#279,.F.);
#376=ORIENTED_EDGE('',*,*,#295,.T.);
#377=ORIENTED_EDGE('',*,*,#296,.T.);
#378=ORIENTED_EDGE('',*,*,#297,.T.);
#379=ORIENTED_EDGE('',*,*,#298,.T.);
#380=ORIENTED_EDGE('',*,*,#299,.T.);
#381=ORIENTED_EDGE('',*,*,#300,.T.);
#382=ORIENTED_EDGE('',*,*,#301,.T.);
#383=ORIENTED_EDGE('',*,*,#302,.T.);
#384=ORIENTED_EDGE('',*,*,#303,.T.);
#385=ORIENTED_EDGE('',*,*,#287,.F.);
#386=ORIENTED_EDGE('',*,*,#304,.T.);
#387=ORIENTED_EDGE('',*,*,#305,.F.);
#388=ORIENTED_EDGE('',*,*,#282,.F.);
#389=ORIENTED_EDGE('',*,*,#294,.F.);
#390=ORIENTED_EDGE('',*,*,#288,.F.);
#391=ORIENTED_EDGE('',*,*,#306,.T.);
#392=ORIENTED_EDGE('',*,*,#307,.T.);
#393=ORIENTED_EDGE('',*,*,#308,.T.);
#394=ORIENTED_EDGE('',*,*,#309,.T.);
#395=ORIENTED_EDGE('',*,*,#308,.F.);
#396=ORIENTED_EDGE('',*,*,#310,.F.);
#397=ORIENTED_EDGE('',*,*,#311,.F.);
#398=ORIENTED_EDGE('',*,*,#312,.T.);
#399=ORIENTED_EDGE('',*,*,#309,.F.);
#400=ORIENTED_EDGE('',*,*,#312,.F.);
#401=ORIENTED_EDGE('',*,*,#313,.F.);
#402=ORIENTED_EDGE('',*,*,#314,.T.);
#403=ORIENTED_EDGE('',*,*,#306,.F.);
#404=ORIENTED_EDGE('',*,*,#314,.F.);
#405=ORIENTED_EDGE('',*,*,#315,.F.);
#406=ORIENTED_EDGE('',*,*,#316,.T.);
#407=ORIENTED_EDGE('',*,*,#307,.F.);
#408=ORIENTED_EDGE('',*,*,#316,.F.);
#409=ORIENTED_EDGE('',*,*,#317,.F.);
#410=ORIENTED_EDGE('',*,*,#310,.T.);
#411=ORIENTED_EDGE('',*,*,#318,.F.);
#412=ORIENTED_EDGE('',*,*,#319,.T.);
#413=ORIENTED_EDGE('',*,*,#320,.F.);
#414=ORIENTED_EDGE('',*,*,#319,.F.);
#415=ORIENTED_EDGE('',*,*,#321,.F.);
#416=ORIENTED_EDGE('',*,*,#277,.F.);
#417=ORIENTED_EDGE('',*,*,#322,.F.);
#418=ORIENTED_EDGE('',*,*,#285,.F.);
#419=ORIENTED_EDGE('',*,*,#318,.T.);
#420=ORIENTED_EDGE('',*,*,#322,.T.);
#421=ORIENTED_EDGE('',*,*,#276,.F.);
#422=ORIENTED_EDGE('',*,*,#304,.F.);
#423=ORIENTED_EDGE('',*,*,#286,.F.);
#424=ORIENTED_EDGE('',*,*,#293,.T.);
#425=ORIENTED_EDGE('',*,*,#283,.T.);
#426=ORIENTED_EDGE('',*,*,#305,.T.);
#427=ORIENTED_EDGE('',*,*,#291,.T.);
#428=ORIENTED_EDGE('',*,*,#320,.T.);
#429=ORIENTED_EDGE('',*,*,#323,.F.);
#430=ORIENTED_EDGE('',*,*,#324,.T.);
#431=ORIENTED_EDGE('',*,*,#296,.F.);
#432=ORIENTED_EDGE('',*,*,#325,.F.);
#433=ORIENTED_EDGE('',*,*,#326,.T.);
#434=ORIENTED_EDGE('',*,*,#327,.F.);
#435=ORIENTED_EDGE('',*,*,#328,.F.);
#436=ORIENTED_EDGE('',*,*,#329,.F.);
#437=ORIENTED_EDGE('',*,*,#330,.F.);
#438=ORIENTED_EDGE('',*,*,#331,.F.);
#439=ORIENTED_EDGE('',*,*,#298,.F.);
#440=ORIENTED_EDGE('',*,*,#332,.T.);
#441=ORIENTED_EDGE('',*,*,#333,.F.);
#442=ORIENTED_EDGE('',*,*,#326,.F.);
#443=ORIENTED_EDGE('',*,*,#334,.F.);
#444=ORIENTED_EDGE('',*,*,#330,.T.);
#445=ORIENTED_EDGE('',*,*,#335,.F.);
#446=ORIENTED_EDGE('',*,*,#336,.T.);
#447=ORIENTED_EDGE('',*,*,#300,.F.);
#448=ORIENTED_EDGE('',*,*,#337,.F.);
#449=ORIENTED_EDGE('',*,*,#338,.T.);
#450=ORIENTED_EDGE('',*,*,#339,.F.);
#451=ORIENTED_EDGE('',*,*,#340,.F.);
#452=ORIENTED_EDGE('',*,*,#341,.F.);
#453=ORIENTED_EDGE('',*,*,#342,.F.);
#454=ORIENTED_EDGE('',*,*,#343,.F.);
#455=ORIENTED_EDGE('',*,*,#302,.F.);
#456=ORIENTED_EDGE('',*,*,#344,.T.);
#457=ORIENTED_EDGE('',*,*,#345,.F.);
#458=ORIENTED_EDGE('',*,*,#338,.F.);
#459=ORIENTED_EDGE('',*,*,#346,.F.);
#460=ORIENTED_EDGE('',*,*,#342,.T.);
#461=ORIENTED_EDGE('',*,*,#328,.T.);
#462=ORIENTED_EDGE('',*,*,#347,.T.);
#463=ORIENTED_EDGE('',*,*,#323,.T.);
#464=ORIENTED_EDGE('',*,*,#348,.F.);
#465=ORIENTED_EDGE('',*,*,#340,.T.);
#466=ORIENTED_EDGE('',*,*,#349,.T.);
#467=ORIENTED_EDGE('',*,*,#335,.T.);
#468=ORIENTED_EDGE('',*,*,#350,.F.);
#469=ORIENTED_EDGE('',*,*,#329,.T.);
#470=ORIENTED_EDGE('',*,*,#348,.T.);
#471=ORIENTED_EDGE('',*,*,#327,.T.);
#472=ORIENTED_EDGE('',*,*,#333,.T.);
#473=ORIENTED_EDGE('',*,*,#347,.F.);
#474=ORIENTED_EDGE('',*,*,#332,.F.);
#475=ORIENTED_EDGE('',*,*,#297,.F.);
#476=ORIENTED_EDGE('',*,*,#324,.F.);
#477=ORIENTED_EDGE('',*,*,#341,.T.);
#478=ORIENTED_EDGE('',*,*,#350,.T.);
#479=ORIENTED_EDGE('',*,*,#339,.T.);
#480=ORIENTED_EDGE('',*,*,#345,.T.);
#481=ORIENTED_EDGE('',*,*,#349,.F.);
#482=ORIENTED_EDGE('',*,*,#344,.F.);
#483=ORIENTED_EDGE('',*,*,#301,.F.);
#484=ORIENTED_EDGE('',*,*,#336,.F.);
#485=ORIENTED_EDGE('',*,*,#321,.T.);
#486=ORIENTED_EDGE('',*,*,#284,.F.);
#487=ORIENTED_EDGE('',*,*,#303,.F.);
#488=ORIENTED_EDGE('',*,*,#343,.T.);
#489=ORIENTED_EDGE('',*,*,#346,.T.);
#490=ORIENTED_EDGE('',*,*,#337,.T.);
#491=ORIENTED_EDGE('',*,*,#299,.F.);
#492=ORIENTED_EDGE('',*,*,#331,.T.);
#493=ORIENTED_EDGE('',*,*,#334,.T.);
#494=ORIENTED_EDGE('',*,*,#325,.T.);
#495=ORIENTED_EDGE('',*,*,#295,.F.);
#496=ORIENTED_EDGE('',*,*,#278,.T.);
#497=ORIENTED_EDGE('',*,*,#315,.T.);
#498=ORIENTED_EDGE('',*,*,#313,.T.);
#499=ORIENTED_EDGE('',*,*,#311,.T.);
#500=ORIENTED_EDGE('',*,*,#317,.T.);
#501=PLANE('',#554);
#502=PLANE('',#555);
#503=PLANE('',#556);
#504=PLANE('',#557);
#505=PLANE('',#558);
#506=PLANE('',#559);
#507=PLANE('',#560);
#508=PLANE('',#561);
#509=PLANE('',#562);
#510=PLANE('',#563);
#511=PLANE('',#564);
#512=PLANE('',#568);
#513=PLANE('',#569);
#514=PLANE('',#570);
#515=PLANE('',#571);
#516=PLANE('',#572);
#517=PLANE('',#576);
#518=PLANE('',#577);
#519=PLANE('',#587);
#520=PLANE('',#588);
#521=PLANE('',#589);
#522=PLANE('',#590);
#523=PLANE('',#591);
#524=ADVANCED_FACE('',(#35),#501,.T.);
#525=ADVANCED_FACE('',(#36),#502,.T.);
#526=ADVANCED_FACE('',(#37),#503,.T.);
#527=ADVANCED_FACE('',(#38),#504,.T.);
#528=ADVANCED_FACE('',(#39),#505,.T.);
#529=ADVANCED_FACE('',(#40,#30),#506,.T.);
#530=ADVANCED_FACE('',(#41,#31),#507,.T.);
#531=ADVANCED_FACE('',(#42),#508,.F.);
#532=ADVANCED_FACE('',(#43),#509,.F.);
#533=ADVANCED_FACE('',(#44),#510,.F.);
#534=ADVANCED_FACE('',(#45),#511,.F.);
#535=ADVANCED_FACE('',(#46),#25,.F.);
#536=ADVANCED_FACE('',(#47,#32),#512,.F.);
#537=ADVANCED_FACE('',(#48),#513,.T.);
#538=ADVANCED_FACE('',(#49,#33),#514,.T.);
#539=ADVANCED_FACE('',(#50),#515,.F.);
#540=ADVANCED_FACE('',(#51),#516,.F.);
#541=ADVANCED_FACE('',(#52),#26,.F.);
#542=ADVANCED_FACE('',(#53),#517,.F.);
#543=ADVANCED_FACE('',(#54),#518,.F.);
#544=ADVANCED_FACE('',(#55),#27,.F.);
#545=ADVANCED_FACE('',(#56),#28,.F.);
#546=ADVANCED_FACE('',(#57),#29,.F.);
#547=ADVANCED_FACE('',(#58),#519,.T.);
#548=ADVANCED_FACE('',(#59),#520,.F.);
#549=ADVANCED_FACE('',(#60),#521,.T.);
#550=ADVANCED_FACE('',(#61),#522,.F.);
#551=ADVANCED_FACE('',(#62,#34),#523,.T.);
#552=CLOSED_SHELL('',(#524,#525,#526,#527,#528,#529,#530,#531,#532,#533,
#534,#535,#536,#537,#538,#539,#540,#541,#542,#543,#544,#545,#546,#547,#548,
#549,#550,#551));
#553=AXIS2_PLACEMENT_3D('',#735,#592,#593);
#554=AXIS2_PLACEMENT_3D('',#736,#594,#595);
#555=AXIS2_PLACEMENT_3D('',#745,#600,#601);
#556=AXIS2_PLACEMENT_3D('',#754,#606,#607);
#557=AXIS2_PLACEMENT_3D('',#763,#612,#613);
#558=AXIS2_PLACEMENT_3D('',#772,#618,#619);
#559=AXIS2_PLACEMENT_3D('',#775,#622,#623);
#560=AXIS2_PLACEMENT_3D('',#795,#635,#636);
#561=AXIS2_PLACEMENT_3D('',#805,#642,#643);
#562=AXIS2_PLACEMENT_3D('',#811,#647,#648);
#563=AXIS2_PLACEMENT_3D('',#815,#651,#652);
#564=AXIS2_PLACEMENT_3D('',#819,#655,#656);
#565=AXIS2_PLACEMENT_3D('',#821,#658,#659);
#566=AXIS2_PLACEMENT_3D('',#823,#660,#661);
#567=AXIS2_PLACEMENT_3D('',#826,#663,#664);
#568=AXIS2_PLACEMENT_3D('',#827,#665,#666);
#569=AXIS2_PLACEMENT_3D('',#830,#669,#670);
#570=AXIS2_PLACEMENT_3D('',#831,#671,#672);
#571=AXIS2_PLACEMENT_3D('',#832,#673,#674);
#572=AXIS2_PLACEMENT_3D('',#842,#680,#681);
#573=AXIS2_PLACEMENT_3D('',#852,#687,#688);
#574=AXIS2_PLACEMENT_3D('',#853,#689,#690);
#575=AXIS2_PLACEMENT_3D('',#854,#691,#692);
#576=AXIS2_PLACEMENT_3D('',#855,#693,#694);
#577=AXIS2_PLACEMENT_3D('',#865,#700,#701);
#578=AXIS2_PLACEMENT_3D('',#875,#707,#708);
#579=AXIS2_PLACEMENT_3D('',#876,#709,#710);
#580=AXIS2_PLACEMENT_3D('',#877,#711,#712);
#581=AXIS2_PLACEMENT_3D('',#878,#713,#714);
#582=AXIS2_PLACEMENT_3D('',#879,#715,#716);
#583=AXIS2_PLACEMENT_3D('',#880,#717,#718);
#584=AXIS2_PLACEMENT_3D('',#881,#719,#720);
#585=AXIS2_PLACEMENT_3D('',#882,#721,#722);
#586=AXIS2_PLACEMENT_3D('',#883,#723,#724);
#587=AXIS2_PLACEMENT_3D('',#884,#725,#726);
#588=AXIS2_PLACEMENT_3D('',#885,#727,#728);
#589=AXIS2_PLACEMENT_3D('',#886,#729,#730);
#590=AXIS2_PLACEMENT_3D('',#887,#731,#732);
#591=AXIS2_PLACEMENT_3D('',#888,#733,#734);
#592=DIRECTION('axis',(0.,0.,1.));
#593=DIRECTION('refdir',(1.,0.,0.));
#594=DIRECTION('center_axis',(1.,0.,8.54017723780193E-17));
#595=DIRECTION('ref_axis',(-8.54017723780193E-17,2.42823459074281E-46,1.));
#596=DIRECTION('',(0.,1.,0.));
#597=DIRECTION('',(-8.54017723780193E-17,-9.51810951785446E-33,1.));
#598=DIRECTION('',(0.,1.,0.));
#599=DIRECTION('',(8.54017723780193E-17,0.,-1.));
#600=DIRECTION('center_axis',(-1.,0.,-7.18590963321159E-17));
#601=DIRECTION('ref_axis',(7.18590963321159E-17,-2.53162973472217E-46,-1.));
#602=DIRECTION('',(0.,1.,0.));
#603=DIRECTION('',(7.18590963321159E-17,-2.53162973472217E-46,-1.));
#604=DIRECTION('',(0.,1.,0.));
#605=DIRECTION('',(-7.18590963321159E-17,2.53162973472217E-46,1.));
#606=DIRECTION('center_axis',(-1.,0.,8.54017723780193E-17));
#607=DIRECTION('ref_axis',(-8.54017723780193E-17,9.52769222923992E-33,-1.));
#608=DIRECTION('',(0.,1.,0.));
#609=DIRECTION('',(-8.54017723780193E-17,9.51810951785445E-33,-1.));
#610=DIRECTION('',(0.,-1.,0.));
#611=DIRECTION('',(8.54017723780193E-17,0.,1.));
#612=DIRECTION('center_axis',(1.,0.,3.5929548166058E-17));
#613=DIRECTION('ref_axis',(-3.5929548166058E-17,-9.92126565934693E-33,1.));
#614=DIRECTION('',(0.,-1.,0.));
#615=DIRECTION('',(-3.5929548166058E-17,-9.92126565934693E-33,1.));
#616=DIRECTION('',(0.,1.,0.));
#617=DIRECTION('',(3.5929548166058E-17,9.92126565934693E-33,-1.));
#618=DIRECTION('center_axis',(-5.04646823564298E-17,0.,-1.));
#619=DIRECTION('ref_axis',(1.,1.28532649108426E-32,-5.04646823564298E-17));
#620=DIRECTION('',(1.,1.28532649108426E-32,-5.04646823564298E-17));
#621=DIRECTION('',(-1.,-1.28532649108426E-32,5.04646823564298E-17));
#622=DIRECTION('center_axis',(0.,-1.,0.));
#623=DIRECTION('ref_axis',(0.,0.,-1.));
#624=DIRECTION('',(-1.,1.08160334184781E-33,0.));
#625=DIRECTION('',(1.,-2.78307291724534E-35,0.));
#626=DIRECTION('',(0.,0.,1.));
#627=DIRECTION('',(1.,0.,0.));
#628=DIRECTION('',(0.,0.,-1.));
#629=DIRECTION('',(1.,-2.78307291724534E-35,0.));
#630=DIRECTION('',(0.,0.,1.));
#631=DIRECTION('',(1.,0.,0.));
#632=DIRECTION('',(0.,0.,-1.));
#633=DIRECTION('',(1.,-2.78307291724534E-35,0.));
#634=DIRECTION('',(-1.,-1.44587184319965E-32,6.49253221156895E-17));
#635=DIRECTION('center_axis',(0.,0.,1.));
#636=DIRECTION('ref_axis',(-1.,1.08160334184781E-33,0.));
#637=DIRECTION('',(1.,-1.08160334184781E-33,0.));
#638=DIRECTION('',(-0.4226182617407,0.90630778703665,0.));
#639=DIRECTION('',(0.90630778703665,0.422618261740699,0.));
#640=DIRECTION('',(0.422618261740699,-0.90630778703665,0.));
#641=DIRECTION('',(-0.90630778703665,-0.422618261740699,0.));
#642=DIRECTION('center_axis',(0.90630778703665,0.422618261740699,0.));
#643=DIRECTION('ref_axis',(-0.422618261740699,0.90630778703665,0.));
#644=DIRECTION('',(0.,0.,1.));
#645=DIRECTION('',(-0.422618261740699,0.90630778703665,0.));
#646=DIRECTION('',(0.,0.,1.));
#647=DIRECTION('center_axis',(0.422618261740699,-0.90630778703665,0.));
#648=DIRECTION('ref_axis',(0.90630778703665,0.422618261740699,0.));
#649=DIRECTION('',(0.90630778703665,0.422618261740699,0.));
#650=DIRECTION('',(0.,0.,1.));
#651=DIRECTION('center_axis',(-0.90630778703665,-0.4226182617407,0.));
#652=DIRECTION('ref_axis',(0.4226182617407,-0.90630778703665,0.));
#653=DIRECTION('',(0.4226182617407,-0.90630778703665,0.));
#654=DIRECTION('',(0.,0.,1.));
#655=DIRECTION('center_axis',(-0.422618261740699,0.90630778703665,0.));
#656=DIRECTION('ref_axis',(-0.90630778703665,-0.422618261740699,0.));
#657=DIRECTION('',(-0.90630778703665,-0.422618261740699,0.));
#658=DIRECTION('center_axis',(0.,1.,0.));
#659=DIRECTION('ref_axis',(1.,0.,0.));
#660=DIRECTION('center_axis',(-1.45011193651847E-32,1.,9.51810951785445E-33));
#661=DIRECTION('ref_axis',(1.,0.,0.));
#662=DIRECTION('',(0.,1.,0.));
#663=DIRECTION('center_axis',(0.,-1.,0.));
#664=DIRECTION('ref_axis',(1.,0.,0.));
#665=DIRECTION('center_axis',(-1.45011193651847E-32,1.,9.51810951785445E-33));
#666=DIRECTION('ref_axis',(-1.,-1.45011193651847E-32,0.));
#667=DIRECTION('',(1.,1.45011193651847E-32,0.));
#668=DIRECTION('',(-1.,-1.45011193651847E-32,6.49253221156895E-17));
#669=DIRECTION('center_axis',(6.49253221156895E-17,0.,1.));
#670=DIRECTION('ref_axis',(-1.,-1.44587184319965E-32,6.49253221156895E-17));
#671=DIRECTION('center_axis',(0.,1.,0.));
#672=DIRECTION('ref_axis',(0.,0.,1.));
#673=DIRECTION('center_axis',(-1.,-4.44089213158746E-16,0.));
#674=DIRECTION('ref_axis',(4.44089213158746E-16,-1.,0.));
#675=DIRECTION('',(0.,0.,-1.));
#676=DIRECTION('',(4.44089213158746E-16,-1.,0.));
#677=DIRECTION('',(4.44089213158746E-16,-1.,0.));
#678=DIRECTION('',(0.,0.,1.));
#679=DIRECTION('',(-4.44089213158746E-16,1.,0.));
#680=DIRECTION('center_axis',(1.,4.44089213158746E-16,0.));
#681=DIRECTION('ref_axis',(-4.44089213158746E-16,1.,0.));
#682=DIRECTION('',(0.,0.,1.));
#683=DIRECTION('',(4.44089213158746E-16,-1.,0.));
#684=DIRECTION('',(0.,0.,1.));
#685=DIRECTION('',(-4.44089213158746E-16,1.,0.));
#686=DIRECTION('',(-4.44089213158746E-16,1.,0.));
#687=DIRECTION('center_axis',(0.,0.,1.));
#688=DIRECTION('ref_axis',(-1.,-4.2976376854508E-17,0.));
#689=DIRECTION('center_axis',(0.,0.,-1.));
#690=DIRECTION('ref_axis',(-1.,-4.2976376854508E-17,0.));
#691=DIRECTION('center_axis',(0.,0.,1.));
#692=DIRECTION('ref_axis',(-1.,-4.2976376854508E-17,0.));
#693=DIRECTION('center_axis',(-1.,0.,0.));
#694=DIRECTION('ref_axis',(0.,-1.,0.));
#695=DIRECTION('',(0.,0.,-1.));
#696=DIRECTION('',(0.,-1.,0.));
#697=DIRECTION('',(0.,-1.,0.));
#698=DIRECTION('',(0.,0.,1.));
#699=DIRECTION('',(0.,1.,0.));
#700=DIRECTION('center_axis',(1.,0.,0.));
#701=DIRECTION('ref_axis',(0.,1.,0.));
#702=DIRECTION('',(0.,0.,1.));
#703=DIRECTION('',(0.,-1.,0.));
#704=DIRECTION('',(0.,0.,1.));
#705=DIRECTION('',(0.,1.,0.));
#706=DIRECTION('',(0.,1.,0.));
#707=DIRECTION('center_axis',(0.,0.,1.));
#708=DIRECTION('ref_axis',(-1.,-2.29207334329627E-15,0.));
#709=DIRECTION('center_axis',(0.,0.,-1.));
#710=DIRECTION('ref_axis',(-1.,-2.29207334329627E-15,0.));
#711=DIRECTION('center_axis',(0.,0.,1.));
#712=DIRECTION('ref_axis',(-1.,-2.29207334329627E-15,0.));
#713=DIRECTION('center_axis',(0.,0.,1.));
#714=DIRECTION('ref_axis',(1.83697019872103E-16,1.,0.));
#715=DIRECTION('center_axis',(0.,0.,1.));
#716=DIRECTION('ref_axis',(-1.,0.,0.));
#717=DIRECTION('center_axis',(0.,0.,1.));
#718=DIRECTION('ref_axis',(-1.,0.,0.));
#719=DIRECTION('center_axis',(0.,0.,1.));
#720=DIRECTION('ref_axis',(1.83697019872103E-16,1.,0.));
#721=DIRECTION('center_axis',(0.,0.,1.));
#722=DIRECTION('ref_axis',(-1.,0.,0.));
#723=DIRECTION('center_axis',(0.,0.,1.));
#724=DIRECTION('ref_axis',(-1.,0.,0.));
#725=DIRECTION('center_axis',(0.,0.,1.));
#726=DIRECTION('ref_axis',(-1.,0.,0.));
#727=DIRECTION('center_axis',(0.,0.,1.));
#728=DIRECTION('ref_axis',(-1.,0.,0.));
#729=DIRECTION('center_axis',(0.,0.,1.));
#730=DIRECTION('ref_axis',(-1.,0.,0.));
#731=DIRECTION('center_axis',(0.,0.,1.));
#732=DIRECTION('ref_axis',(-1.,0.,0.));
#733=DIRECTION('center_axis',(0.,0.,-1.));
#734=DIRECTION('ref_axis',(1.,-2.78307291724534E-35,0.));
#735=CARTESIAN_POINT('',(0.,0.,0.));
#736=CARTESIAN_POINT('Origin',(-21.1000003129242,8.25000007450551,-3.10000066757198));
#737=CARTESIAN_POINT('',(-21.1000003129242,-4.99999992549449,-3.10000066757198));
#738=CARTESIAN_POINT('',(-21.1000003129242,8.25000007450551,-3.10000066757198));
#739=CARTESIAN_POINT('',(-21.1000003129242,8.25000007450551,-3.10000066757198));
#740=CARTESIAN_POINT('',(-21.1000003129242,8.25000007450551,48.8999985694886));
#741=CARTESIAN_POINT('',(-21.1000003129242,8.25000007450551,9.89999914169316));
#742=CARTESIAN_POINT('',(-21.1000003129242,-4.99999992549449,48.8999985694886));
#743=CARTESIAN_POINT('',(-21.1000003129242,8.25000007450551,48.8999985694886));
#744=CARTESIAN_POINT('',(-21.1000003129242,-4.99999992549449,22.8999989509583));
#745=CARTESIAN_POINT('Origin',(-26.0000003129242,8.25000007450551,53.7999985694886));
#746=CARTESIAN_POINT('',(-26.0000003129242,-4.99999992549449,-8.00000066757199));
#747=CARTESIAN_POINT('',(-26.0000003129242,10.2500000745055,-8.00000066757199));
#748=CARTESIAN_POINT('',(-26.0000003129242,8.25000007450551,-8.00000066757199));
#749=CARTESIAN_POINT('',(-26.0000003129242,-4.99999992549449,53.7999985694886));
#750=CARTESIAN_POINT('',(-26.0000003129242,-4.99999992549449,-8.00000066757199));
#751=CARTESIAN_POINT('',(-26.0000003129242,10.2500000745055,53.7999985694886));
#752=CARTESIAN_POINT('',(-26.0000003129242,8.25000007450551,53.7999985694886));
#753=CARTESIAN_POINT('',(-26.0000003129242,10.2500000745055,-8.00000066757199));
#754=CARTESIAN_POINT('Origin',(13.1000001937152,8.25000007450551,48.8999985694886));
#755=CARTESIAN_POINT('',(13.1000001937152,-4.99999992549449,48.8999985694886));
#756=CARTESIAN_POINT('',(13.1000001937152,8.25000007450551,48.8999985694886));
#757=CARTESIAN_POINT('',(13.1000001937152,8.25000007450551,48.8999985694886));
#758=CARTESIAN_POINT('',(13.1000001937152,8.25000007450551,-3.10000066757198));
#759=CARTESIAN_POINT('',(13.1000001937152,8.25000007450551,35.8999987602234));
#760=CARTESIAN_POINT('',(13.1000001937152,-4.99999992549449,-3.10000066757198));
#761=CARTESIAN_POINT('',(13.1000001937152,8.25000007450551,-3.10000066757198));
#762=CARTESIAN_POINT('',(13.1000001937152,-4.99999992549449,22.8999989509583));
#763=CARTESIAN_POINT('Origin',(18.0000001937152,8.25000007450551,-8.00000066757199));
#764=CARTESIAN_POINT('',(18.0000001937152,10.2500000745055,53.7999985694886));
#765=CARTESIAN_POINT('',(18.0000001937152,-4.99999992549449,53.7999985694886));
#766=CARTESIAN_POINT('',(18.0000001937152,8.25000007450551,53.7999985694886));
#767=CARTESIAN_POINT('',(18.0000001937152,-4.99999992549449,-8.00000066757199));
#768=CARTESIAN_POINT('',(18.0000001937152,-4.99999992549449,53.7999985694886));
#769=CARTESIAN_POINT('',(18.0000001937152,10.2500000745055,-8.00000066757199));
#770=CARTESIAN_POINT('',(18.0000001937152,8.25000007450551,-8.00000066757199));
#771=CARTESIAN_POINT('',(18.0000001937152,10.2500000745055,53.7999985694886));
#772=CARTESIAN_POINT('Origin',(-26.0000003129242,8.25000007450551,-8.00000066757199));
#773=CARTESIAN_POINT('',(18.0000001937152,-4.99999992549449,-8.00000066757199));
#774=CARTESIAN_POINT('',(18.0000001937152,10.2500000745055,-8.00000066757199));
#775=CARTESIAN_POINT('Origin',(-4.00000005960449,-4.99999992549449,22.8999989509583));
#776=CARTESIAN_POINT('',(-26.0000003129242,-4.99999992549449,53.7999985694886));
#777=CARTESIAN_POINT('',(-8.29999999999985,-4.99999992549449,48.8999985694886));
#778=CARTESIAN_POINT('',(-21.1000003129242,-4.99999992549449,48.8999985694886));
#779=CARTESIAN_POINT('',(-8.29999999999985,-4.99999992549449,51.7999985694886));
#780=CARTESIAN_POINT('',(-8.29999999999985,-4.99999992549449,35.8999987602234));
#781=CARTESIAN_POINT('',(-5.19999999999985,-4.99999992549449,51.7999985694886));
#782=CARTESIAN_POINT('',(-5.37500002980217,-4.99999992549449,51.7999985694886));
#783=CARTESIAN_POINT('',(-5.19999999999985,-4.99999992549449,48.8999985694886));
#784=CARTESIAN_POINT('',(-5.19999999999985,-4.99999992549449,35.8999987602234));
#785=CARTESIAN_POINT('',(5.20000000000015,-4.99999992549449,48.8999985694886));
#786=CARTESIAN_POINT('',(-21.1000003129242,-4.99999992549449,48.8999985694886));
#787=CARTESIAN_POINT('',(5.20000000000015,-4.99999992549449,51.7999985694886));
#788=CARTESIAN_POINT('',(5.20000000000015,-4.99999992549449,35.8999987602234));
#789=CARTESIAN_POINT('',(8.30000000000015,-4.99999992549449,51.7999985694886));
#790=CARTESIAN_POINT('',(1.37499997019783,-4.99999992549449,51.7999985694886));
#791=CARTESIAN_POINT('',(8.30000000000015,-4.99999992549449,48.8999985694886));
#792=CARTESIAN_POINT('',(8.30000000000015,-4.99999992549449,35.8999987602234));
#793=CARTESIAN_POINT('',(-21.1000003129242,-4.99999992549449,48.8999985694886));
#794=CARTESIAN_POINT('',(13.1000001937152,-4.99999992549449,-3.10000066757199));
#795=CARTESIAN_POINT('Origin',(18.0000001937152,8.25000007450551,53.7999985694886));
#796=CARTESIAN_POINT('',(-26.0000003129242,10.2500000745055,53.7999985694886));
#797=CARTESIAN_POINT('',(-2.2963050993691,-2.1741625722586,53.7999985694886));
#798=CARTESIAN_POINT('',(-3.1415416228505,-0.361546998185296,53.7999985694886));
#799=CARTESIAN_POINT('',(-2.90274339647172,-0.873651447260012,53.7999985694886));
#800=CARTESIAN_POINT('',(2.2963050993694,2.1741625722589,53.7999985694886));
#801=CARTESIAN_POINT('',(9.90935442016353,5.72418577245692,53.7999985694886));
#802=CARTESIAN_POINT('',(3.1415416228508,0.361546998185601,53.7999985694886));
#803=CARTESIAN_POINT('',(2.95772158748888,0.755750336147538,53.7999985694886));
#804=CARTESIAN_POINT('',(8.03566758253498,2.64371541316152,53.7999985694886));
#805=CARTESIAN_POINT('Origin',(3.1415416228508,0.361546998185602,30.2999985694886));
#806=CARTESIAN_POINT('',(2.2963050993694,2.1741625722589,48.8999985694886));
#807=CARTESIAN_POINT('',(2.2963050993694,2.1741625722589,30.2999985694886));
#808=CARTESIAN_POINT('',(3.1415416228508,0.361546998185601,48.8999985694886));
#809=CARTESIAN_POINT('',(-0.53402957306967,8.24383486466264,48.8999985694886));
#810=CARTESIAN_POINT('',(3.1415416228508,0.361546998185601,30.2999985694886));
#811=CARTESIAN_POINT('Origin',(-2.2963050993691,-2.17416257225859,30.2999985694886));
#812=CARTESIAN_POINT('',(-2.2963050993691,-2.1741625722586,48.8999985694886));
#813=CARTESIAN_POINT('',(-8.0225815102262,-4.84436911535358,48.8999985694886));
#814=CARTESIAN_POINT('',(-2.2963050993691,-2.1741625722586,30.2999985694886));
#815=CARTESIAN_POINT('Origin',(-3.1415416228505,-0.361546998185296,30.2999985694886));
#816=CARTESIAN_POINT('',(-3.1415416228505,-0.361546998185296,48.8999985694886));
#817=CARTESIAN_POINT('',(-6.39449455703027,6.61443308125509,48.8999985694886));
#818=CARTESIAN_POINT('',(-3.1415416228505,-0.361546998185296,30.2999985694886));
#819=CARTESIAN_POINT('Origin',(2.2963050993694,2.1741625722589,30.2999985694886));
#820=CARTESIAN_POINT('',(-6.14889467259765,-1.76389875605818,48.8999985694886));
#821=CARTESIAN_POINT('Origin',(1.49137279339515E-13,5.25000007450554,42.7999985694886));
#822=CARTESIAN_POINT('',(-1.14999999999985,8.25000007450551,42.7999985694886));
#823=CARTESIAN_POINT('Origin',(1.49137279339515E-13,8.25000007450551,42.7999985694886));
#824=CARTESIAN_POINT('',(-1.14999999999985,10.2500000745055,42.7999985694886));
#825=CARTESIAN_POINT('',(-1.14999999999985,5.25000007450554,42.7999985694886));
#826=CARTESIAN_POINT('Origin',(1.49137279339515E-13,10.2500000745055,42.7999985694886));
#827=CARTESIAN_POINT('Origin',(-4.0000000596045,8.25000007450551,22.8999989509583));
#828=CARTESIAN_POINT('',(-12.5500001862644,8.25000007450551,48.8999985694886));
#829=CARTESIAN_POINT('',(4.55000006705537,8.25000007450551,-3.10000066757199));
#830=CARTESIAN_POINT('Origin',(13.1000001937152,8.25000007450551,-3.10000066757199));
#831=CARTESIAN_POINT('Origin',(-4.00000005960449,10.2500000745055,22.8999989509583));
#832=CARTESIAN_POINT('Origin',(-8.29999999999985,3.7253045167315E-8,48.8999985694886));
#833=CARTESIAN_POINT('',(-8.29999999999985,-1.89736655884798,51.7999985694886));
#834=CARTESIAN_POINT('',(-8.29999999999985,-1.89736655884798,48.9499985694885));
#835=CARTESIAN_POINT('',(-8.29999999999985,-1.89736655884798,48.7999985694885));
#836=CARTESIAN_POINT('',(-8.29999999999985,3.7253045167315E-8,51.7999985694886));
#837=CARTESIAN_POINT('',(-8.29999999999985,3.7253045167315E-8,48.8999985694886));
#838=CARTESIAN_POINT('',(-8.29999999999985,4.12500005587928,48.8999985694886));
#839=CARTESIAN_POINT('',(-8.29999999999985,3.7253045167315E-8,48.9499985694885));
#840=CARTESIAN_POINT('',(-8.29999999999985,3.7253045167315E-8,48.8999985694886));
#841=CARTESIAN_POINT('',(-8.29999999999985,3.72530449248494E-8,48.9499985694885));
#842=CARTESIAN_POINT('Origin',(-5.19999999999985,-4.99999992549449,48.8999985694886));
#843=CARTESIAN_POINT('',(-5.19999999999985,-1.89736655884798,48.9499985694885));
#844=CARTESIAN_POINT('',(-5.19999999999985,-1.89736655884798,51.7999985694886));
#845=CARTESIAN_POINT('',(-5.19999999999985,-1.89736655884798,48.7999985694885));
#846=CARTESIAN_POINT('',(-5.19999999999985,3.7253045490362E-8,48.9499985694885));
#847=CARTESIAN_POINT('',(-5.19999999999985,-2.49999994412072,48.9499985694885));
#848=CARTESIAN_POINT('',(-5.19999999999985,3.7253045490362E-8,48.8999985694886));
#849=CARTESIAN_POINT('',(-5.19999999999985,3.7253045490362E-8,48.8999985694886));
#850=CARTESIAN_POINT('',(-5.19999999999985,1.62500007450551,48.8999985694886));
#851=CARTESIAN_POINT('',(-5.19999999999985,3.7253045490362E-8,51.7999985694886));
#852=CARTESIAN_POINT('Origin',(-6.74999999999985,3.72530452339284E-8,48.8999985694886));
#853=CARTESIAN_POINT('Origin',(-6.74999999999985,3.72530452339284E-8,48.9499985694885));
#854=CARTESIAN_POINT('Origin',(-6.74999999999985,3.72530452339284E-8,48.8999985694886));
#855=CARTESIAN_POINT('Origin',(5.20000000000015,3.72530452339284E-8,48.8999985694886));
#856=CARTESIAN_POINT('',(5.20000000000015,-1.89736655884798,51.7999985694886));
#857=CARTESIAN_POINT('',(5.20000000000015,-1.89736655884798,48.9499985694885));
#858=CARTESIAN_POINT('',(5.20000000000015,-1.89736655884798,48.7999985694885));
#859=CARTESIAN_POINT('',(5.20000000000015,3.72530452339284E-8,51.7999985694886));
#860=CARTESIAN_POINT('',(5.20000000000015,3.72530452339284E-8,48.8999985694886));
#861=CARTESIAN_POINT('',(5.20000000000015,4.12500005587928,48.8999985694886));
#862=CARTESIAN_POINT('',(5.20000000000015,3.72530452339284E-8,48.9499985694885));
#863=CARTESIAN_POINT('',(5.20000000000015,3.72530452339284E-8,48.8999985694886));
#864=CARTESIAN_POINT('',(5.20000000000015,3.72530469676597E-8,48.9499985694885));
#865=CARTESIAN_POINT('Origin',(8.30000000000015,-4.99999992549449,48.8999985694886));
#866=CARTESIAN_POINT('',(8.30000000000015,-1.89736655884798,48.9499985694885));
#867=CARTESIAN_POINT('',(8.30000000000015,-1.89736655884798,51.7999985694886));
#868=CARTESIAN_POINT('',(8.30000000000015,-1.89736655884798,48.7999985694885));
#869=CARTESIAN_POINT('',(8.30000000000015,3.72530532175143E-8,48.9499985694885));
#870=CARTESIAN_POINT('',(8.30000000000015,-2.49999994412072,48.9499985694885));
#871=CARTESIAN_POINT('',(8.30000000000015,3.72530532175143E-8,48.8999985694886));
#872=CARTESIAN_POINT('',(8.30000000000015,3.72530532175143E-8,48.8999985694886));
#873=CARTESIAN_POINT('',(8.30000000000015,1.62500007450551,48.8999985694886));
#874=CARTESIAN_POINT('',(8.30000000000015,3.72530532175143E-8,51.7999985694886));
#875=CARTESIAN_POINT('Origin',(6.75000000000015,3.72530487866421E-8,48.8999985694886));
#876=CARTESIAN_POINT('Origin',(6.75000000000015,3.72530487866421E-8,48.9499985694885));
#877=CARTESIAN_POINT('Origin',(6.75000000000015,3.72530487866421E-8,48.8999985694886));
#878=CARTESIAN_POINT('Origin',(-6.74999999999985,3.72530452339284E-8,48.7999985694885));
#879=CARTESIAN_POINT('Origin',(-6.74999999999985,3.72530452339284E-8,51.7999985694885));
#880=CARTESIAN_POINT('Origin',(-6.74999999999985,3.72530452339284E-8,48.9499985694885));
#881=CARTESIAN_POINT('Origin',(6.75000000000015,3.72530487866421E-8,48.7999985694885));
#882=CARTESIAN_POINT('Origin',(6.75000000000015,3.72530487866421E-8,51.7999985694885));
#883=CARTESIAN_POINT('Origin',(6.75000000000015,3.72530487866421E-8,48.9499985694885));
#884=CARTESIAN_POINT('Origin',(-6.74999999999985,3.7253045370722E-8,48.9499985694885));
#885=CARTESIAN_POINT('Origin',(-6.74999999999985,3.7253045370722E-8,51.7999985694885));
#886=CARTESIAN_POINT('Origin',(6.75000000000015,3.72530487013911E-8,48.9499985694885));
#887=CARTESIAN_POINT('Origin',(6.75000000000015,3.72530487013911E-8,51.7999985694885));
#888=CARTESIAN_POINT('Origin',(-21.1000003129242,8.25000007450551,48.8999985694886));
#889=UNCERTAINTY_MEASURE_WITH_UNIT(LENGTH_MEASURE(0.01),#893,
'DISTANCE_ACCURACY_VALUE',
'Maximum model space distance between geometric entities at asserted c
onnectivities');
#890=UNCERTAINTY_MEASURE_WITH_UNIT(LENGTH_MEASURE(0.01),#893,
'DISTANCE_ACCURACY_VALUE',
'Maximum model space distance between geometric entities at asserted c
onnectivities');
#891=(
GEOMETRIC_REPRESENTATION_CONTEXT(3)
GLOBAL_UNCERTAINTY_ASSIGNED_CONTEXT((#889))
GLOBAL_UNIT_ASSIGNED_CONTEXT((#893,#894,#895))
REPRESENTATION_CONTEXT('','3D')
);
#892=(
GEOMETRIC_REPRESENTATION_CONTEXT(3)
GLOBAL_UNCERTAINTY_ASSIGNED_CONTEXT((#890))
GLOBAL_UNIT_ASSIGNED_CONTEXT((#893,#894,#895))
REPRESENTATION_CONTEXT('','3D')
);
#893=(
LENGTH_UNIT()
NAMED_UNIT(*)
SI_UNIT(.MILLI.,.METRE.)
);
#894=(
NAMED_UNIT(*)
PLANE_ANGLE_UNIT()
SI_UNIT($,.RADIAN.)
);
#895=(
NAMED_UNIT(*)
SI_UNIT($,.STERADIAN.)
SOLID_ANGLE_UNIT()
);
#896=SHAPE_DEFINITION_REPRESENTATION(#897,#898);
#897=PRODUCT_DEFINITION_SHAPE('',$,#900);
#898=SHAPE_REPRESENTATION('',(#553),#891);
#899=PRODUCT_DEFINITION_CONTEXT('part definition',#904,'design');
#900=PRODUCT_DEFINITION('Zee Cutter2','Filament Guillotine',#901,#899);
#901=PRODUCT_DEFINITION_FORMATION('',$,#906);
#902=PRODUCT_RELATED_PRODUCT_CATEGORY('Filament Guillotine',
'Filament Guillotine',(#906));
#903=APPLICATION_PROTOCOL_DEFINITION('international standard',
'automotive_design',2009,#904);
#904=APPLICATION_CONTEXT(
'Core Data for Automotive Mechanical Design Process');
#905=PRODUCT_CONTEXT('part definition',#904,'mechanical');
#906=PRODUCT('Zee Cutter2','Filament Guillotine',$,(#905));
#907=PRESENTATION_STYLE_ASSIGNMENT((#914));
#908=PRESENTATION_STYLE_ASSIGNMENT((#915));
#909=PRESENTATION_STYLE_ASSIGNMENT((#916));
#910=PRESENTATION_STYLE_ASSIGNMENT((#917));
#911=PRESENTATION_STYLE_ASSIGNMENT((#918));
#912=PRESENTATION_STYLE_ASSIGNMENT((#919));
#913=PRESENTATION_STYLE_ASSIGNMENT((#920));
#914=SURFACE_STYLE_USAGE(.BOTH.,#921);
#915=SURFACE_STYLE_USAGE(.BOTH.,#922);
#916=SURFACE_STYLE_USAGE(.BOTH.,#923);
#917=SURFACE_STYLE_USAGE(.BOTH.,#924);
#918=SURFACE_STYLE_USAGE(.BOTH.,#925);
#919=SURFACE_STYLE_USAGE(.BOTH.,#926);
#920=SURFACE_STYLE_USAGE(.BOTH.,#927);
#921=SURFACE_SIDE_STYLE('',(#928));
#922=SURFACE_SIDE_STYLE('',(#929));
#923=SURFACE_SIDE_STYLE('',(#930));
#924=SURFACE_SIDE_STYLE('',(#931));
#925=SURFACE_SIDE_STYLE('',(#932));
#926=SURFACE_SIDE_STYLE('',(#933));
#927=SURFACE_SIDE_STYLE('',(#934));
#928=SURFACE_STYLE_FILL_AREA(#935);
#929=SURFACE_STYLE_FILL_AREA(#936);
#930=SURFACE_STYLE_FILL_AREA(#937);
#931=SURFACE_STYLE_FILL_AREA(#938);
#932=SURFACE_STYLE_FILL_AREA(#939);
#933=SURFACE_STYLE_FILL_AREA(#940);
#934=SURFACE_STYLE_FILL_AREA(#941);
#935=FILL_AREA_STYLE('Steel - Satin',(#942));
#936=FILL_AREA_STYLE('Opaque(188,80,47)',(#943));
#937=FILL_AREA_STYLE('Opaque(24,37,248)',(#944));
#938=FILL_AREA_STYLE('Plastic - Matte (Yellow)',(#945));
#939=FILL_AREA_STYLE('Opaque(190,188,186)',(#946));
#940=FILL_AREA_STYLE('Matte Red',(#947));
#941=FILL_AREA_STYLE('Plastic - Matte (Green)',(#948));
#942=FILL_AREA_STYLE_COLOUR('Steel - Satin',#949);
#943=FILL_AREA_STYLE_COLOUR('Opaque(188,80,47)',#950);
#944=FILL_AREA_STYLE_COLOUR('Opaque(24,37,248)',#951);
#945=FILL_AREA_STYLE_COLOUR('Plastic - Matte (Yellow)',#952);
#946=FILL_AREA_STYLE_COLOUR('Opaque(190,188,186)',#953);
#947=FILL_AREA_STYLE_COLOUR('Matte Red',#954);
#948=FILL_AREA_STYLE_COLOUR('Plastic - Matte (Green)',#955);
#949=COLOUR_RGB('Steel - Satin',0.627450980392157,0.627450980392157,0.627450980392157);
#950=COLOUR_RGB('Opaque(188,80,47)',0.737254901960784,0.313725490196078,
0.184313725490196);
#951=COLOUR_RGB('Opaque(24,37,248)',0.0941176470588235,0.145098039215686,
0.972549019607843);
#952=COLOUR_RGB('Plastic - Matte (Yellow)',0.909803921568627,0.67843137254902,
0.137254901960784);
#953=COLOUR_RGB('Opaque(190,188,186)',0.745098039215686,0.737254901960784,
0.729411764705882);
#954=COLOUR_RGB('Matte Red',1.,0.513725490196078,0.545098039215686);
#955=COLOUR_RGB('Plastic - Matte (Green)',0.266666666666667,0.588235294117647,
0.282352941176471);
ENDSEC;
END-ISO-10303-21;
