ISO-10303-21;
HEADER;
/* Generated by software containing ST-Developer
 * from STEP Tools, Inc. (www.steptools.com) 
 */

FILE_DESCRIPTION(
/* description */ (''),
/* implementation_level */ '2;1');

FILE_NAME(
/* name */ 'Filament Guillotine-Inner Boddy.step',
/* time_stamp */ '2026-09-10T19:12:26-04:00',
/* author */ (''),
/* organization */ (''),
/* preprocessor_version */ 'ST-DEVELOPER v20.2',
/* originating_system */ 'Autodesk Translation Framework v15.15.0.0',
/* authorisation */ '');

FILE_SCHEMA (('AUTOMOTIVE_DESIGN { 1 0 10303 214 3 1 1 }'));
ENDSEC;

DATA;
#10=MECHANICAL_DESIGN_GEOMETRIC_PRESENTATION_REPRESENTATION('',(#13),#1063);
#11=SHAPE_REPRESENTATION_RELATIONSHIP('SRR','None',#1069,#12);
#12=ADVANCED_BREP_SHAPE_REPRESENTATION('',(#14),#1062);
#13=STYLED_ITEM('',(#1079),#14);
#14=MANIFOLD_SOLID_BREP('inner Body',#651);
#15=ELLIPSE('',#677,2.12132034355964,1.5);
#16=ELLIPSE('',#679,2.12132034355964,1.5);
#17=FACE_BOUND('',#92,.T.);
#18=FACE_BOUND('',#93,.T.);
#19=FACE_BOUND('',#94,.T.);
#20=FACE_BOUND('',#96,.T.);
#21=FACE_BOUND('',#103,.T.);
#22=FACE_BOUND('',#104,.T.);
#23=FACE_BOUND('',#105,.T.);
#24=FACE_BOUND('',#110,.T.);
#25=FACE_BOUND('',#116,.T.);
#26=FACE_BOUND('',#118,.T.);
#27=FACE_BOUND('',#123,.T.);
#28=CIRCLE('',#658,1.15);
#29=CIRCLE('',#659,1.15);
#30=CIRCLE('',#661,1.5);
#31=CIRCLE('',#662,1.5);
#32=CIRCLE('',#664,0.499999999999999);
#33=CIRCLE('',#665,4.75);
#34=CIRCLE('',#666,0.5);
#35=CIRCLE('',#667,1.5);
#36=CIRCLE('',#672,1.5);
#37=CIRCLE('',#674,1.5);
#38=CIRCLE('',#678,1.5);
#39=CIRCLE('',#680,1.5);
#40=CIRCLE('',#682,1.5);
#41=CIRCLE('',#685,0.5);
#42=CIRCLE('',#686,4.75);
#43=CIRCLE('',#687,0.499999999999999);
#44=CIRCLE('',#692,3.);
#45=CIRCLE('',#694,3.);
#46=CYLINDRICAL_SURFACE('',#657,1.15);
#47=CYLINDRICAL_SURFACE('',#671,1.5);
#48=CYLINDRICAL_SURFACE('',#673,1.5);
#49=CYLINDRICAL_SURFACE('',#676,1.5);
#50=CYLINDRICAL_SURFACE('',#681,1.5);
#51=CYLINDRICAL_SURFACE('',#688,0.499999999999999);
#52=CYLINDRICAL_SURFACE('',#689,4.75);
#53=CYLINDRICAL_SURFACE('',#690,0.5);
#54=CYLINDRICAL_SURFACE('',#696,3.);
#55=FACE_OUTER_BOUND('',#86,.T.);
#56=FACE_OUTER_BOUND('',#87,.T.);
#57=FACE_OUTER_BOUND('',#88,.T.);
#58=FACE_OUTER_BOUND('',#89,.T.);
#59=FACE_OUTER_BOUND('',#90,.T.);
#60=FACE_OUTER_BOUND('',#91,.T.);
#61=FACE_OUTER_BOUND('',#95,.T.);
#62=FACE_OUTER_BOUND('',#97,.T.);
#63=FACE_OUTER_BOUND('',#98,.T.);
#64=FACE_OUTER_BOUND('',#99,.T.);
#65=FACE_OUTER_BOUND('',#100,.T.);
#66=FACE_OUTER_BOUND('',#101,.T.);
#67=FACE_OUTER_BOUND('',#102,.T.);
#68=FACE_OUTER_BOUND('',#106,.T.);
#69=FACE_OUTER_BOUND('',#107,.T.);
#70=FACE_OUTER_BOUND('',#108,.T.);
#71=FACE_OUTER_BOUND('',#109,.T.);
#72=FACE_OUTER_BOUND('',#111,.T.);
#73=FACE_OUTER_BOUND('',#112,.T.);
#74=FACE_OUTER_BOUND('',#113,.T.);
#75=FACE_OUTER_BOUND('',#114,.T.);
#76=FACE_OUTER_BOUND('',#115,.T.);
#77=FACE_OUTER_BOUND('',#117,.T.);
#78=FACE_OUTER_BOUND('',#119,.T.);
#79=FACE_OUTER_BOUND('',#120,.T.);
#80=FACE_OUTER_BOUND('',#121,.T.);
#81=FACE_OUTER_BOUND('',#122,.T.);
#82=FACE_OUTER_BOUND('',#124,.T.);
#83=FACE_OUTER_BOUND('',#125,.T.);
#84=FACE_OUTER_BOUND('',#126,.T.);
#85=FACE_OUTER_BOUND('',#127,.T.);
#86=EDGE_LOOP('',(#418,#419,#420,#421));
#87=EDGE_LOOP('',(#422,#423,#424,#425));
#88=EDGE_LOOP('',(#426,#427,#428,#429));
#89=EDGE_LOOP('',(#430,#431,#432,#433));
#90=EDGE_LOOP('',(#434,#435,#436,#437));
#91=EDGE_LOOP('',(#438,#439,#440,#441));
#92=EDGE_LOOP('',(#442,#443,#444,#445));
#93=EDGE_LOOP('',(#446));
#94=EDGE_LOOP('',(#447));
#95=EDGE_LOOP('',(#448,#449,#450,#451,#452,#453));
#96=EDGE_LOOP('',(#454));
#97=EDGE_LOOP('',(#455,#456,#457,#458));
#98=EDGE_LOOP('',(#459,#460,#461,#462));
#99=EDGE_LOOP('',(#463,#464,#465,#466));
#100=EDGE_LOOP('',(#467,#468,#469,#470));
#101=EDGE_LOOP('',(#471,#472,#473,#474));
#102=EDGE_LOOP('',(#475,#476,#477,#478));
#103=EDGE_LOOP('',(#479,#480,#481,#482));
#104=EDGE_LOOP('',(#483));
#105=EDGE_LOOP('',(#484));
#106=EDGE_LOOP('',(#485,#486,#487,#488,#489,#490));
#107=EDGE_LOOP('',(#491,#492,#493,#494));
#108=EDGE_LOOP('',(#495,#496,#497,#498,#499,#500));
#109=EDGE_LOOP('',(#501,#502,#503,#504,#505,#506));
#110=EDGE_LOOP('',(#507));
#111=EDGE_LOOP('',(#508,#509,#510,#511));
#112=EDGE_LOOP('',(#512,#513,#514,#515));
#113=EDGE_LOOP('',(#516,#517,#518,#519));
#114=EDGE_LOOP('',(#520,#521,#522,#523,#524,#525,#526,#527,#528,#529,#530,
#531,#532,#533));
#115=EDGE_LOOP('',(#534,#535,#536,#537,#538,#539,#540,#541,#542,#543,#544,
#545,#546,#547));
#116=EDGE_LOOP('',(#548));
#117=EDGE_LOOP('',(#549,#550,#551,#552));
#118=EDGE_LOOP('',(#553));
#119=EDGE_LOOP('',(#554,#555,#556,#557));
#120=EDGE_LOOP('',(#558,#559,#560,#561));
#121=EDGE_LOOP('',(#562,#563,#564,#565,#566,#567,#568));
#122=EDGE_LOOP('',(#569,#570,#571,#572));
#123=EDGE_LOOP('',(#573));
#124=EDGE_LOOP('',(#574,#575,#576,#577,#578,#579,#580,#581));
#125=EDGE_LOOP('',(#582,#583,#584,#585,#586,#587,#588,#589));
#126=EDGE_LOOP('',(#590,#591,#592,#593));
#127=EDGE_LOOP('',(#594,#595,#596,#597));
#128=LINE('',#882,#198);
#129=LINE('',#884,#199);
#130=LINE('',#886,#200);
#131=LINE('',#887,#201);
#132=LINE('',#890,#202);
#133=LINE('',#892,#203);
#134=LINE('',#893,#204);
#135=LINE('',#896,#205);
#136=LINE('',#898,#206);
#137=LINE('',#899,#207);
#138=LINE('',#901,#208);
#139=LINE('',#902,#209);
#140=LINE('',#907,#210);
#141=LINE('',#912,#211);
#142=LINE('',#914,#212);
#143=LINE('',#916,#213);
#144=LINE('',#917,#214);
#145=LINE('',#925,#215);
#146=LINE('',#927,#216);
#147=LINE('',#929,#217);
#148=LINE('',#940,#218);
#149=LINE('',#942,#219);
#150=LINE('',#944,#220);
#151=LINE('',#945,#221);
#152=LINE('',#949,#222);
#153=LINE('',#951,#223);
#154=LINE('',#953,#224);
#155=LINE('',#954,#225);
#156=LINE('',#956,#226);
#157=LINE('',#957,#227);
#158=LINE('',#961,#228);
#159=LINE('',#965,#229);
#160=LINE('',#969,#230);
#161=LINE('',#971,#231);
#162=LINE('',#973,#232);
#163=LINE('',#974,#233);
#164=LINE('',#983,#234);
#165=LINE('',#988,#235);
#166=LINE('',#991,#236);
#167=LINE('',#993,#237);
#168=LINE('',#995,#238);
#169=LINE('',#997,#239);
#170=LINE('',#998,#240);
#171=LINE('',#1002,#241);
#172=LINE('',#1004,#242);
#173=LINE('',#1011,#243);
#174=LINE('',#1013,#244);
#175=LINE('',#1014,#245);
#176=LINE('',#1016,#246);
#177=LINE('',#1018,#247);
#178=LINE('',#1020,#248);
#179=LINE('',#1021,#249);
#180=LINE('',#1022,#250);
#181=LINE('',#1024,#251);
#182=LINE('',#1028,#252);
#183=LINE('',#1030,#253);
#184=LINE('',#1031,#254);
#185=LINE('',#1033,#255);
#186=LINE('',#1034,#256);
#187=LINE('',#1036,#257);
#188=LINE('',#1038,#258);
#189=LINE('',#1040,#259);
#190=LINE('',#1043,#260);
#191=LINE('',#1044,#261);
#192=LINE('',#1046,#262);
#193=LINE('',#1047,#263);
#194=LINE('',#1049,#264);
#195=LINE('',#1050,#265);
#196=LINE('',#1052,#266);
#197=LINE('',#1055,#267);
#198=VECTOR('',#708,10.);
#199=VECTOR('',#709,10.);
#200=VECTOR('',#710,10.);
#201=VECTOR('',#711,10.);
#202=VECTOR('',#714,10.);
#203=VECTOR('',#715,10.);
#204=VECTOR('',#716,10.);
#205=VECTOR('',#719,10.);
#206=VECTOR('',#720,10.);
#207=VECTOR('',#721,10.);
#208=VECTOR('',#724,10.);
#209=VECTOR('',#725,10.);
#210=VECTOR('',#730,1.15);
#211=VECTOR('',#735,10.);
#212=VECTOR('',#736,10.);
#213=VECTOR('',#737,10.);
#214=VECTOR('',#738,10.);
#215=VECTOR('',#745,10.);
#216=VECTOR('',#746,10.);
#217=VECTOR('',#747,10.);
#218=VECTOR('',#758,10.);
#219=VECTOR('',#759,10.);
#220=VECTOR('',#760,10.);
#221=VECTOR('',#761,10.);
#222=VECTOR('',#764,10.);
#223=VECTOR('',#765,10.);
#224=VECTOR('',#766,10.);
#225=VECTOR('',#767,10.);
#226=VECTOR('',#770,10.);
#227=VECTOR('',#771,10.);
#228=VECTOR('',#776,1.5);
#229=VECTOR('',#781,1.5);
#230=VECTOR('',#784,10.);
#231=VECTOR('',#785,10.);
#232=VECTOR('',#786,10.);
#233=VECTOR('',#787,10.);
#234=VECTOR('',#796,1.5);
#235=VECTOR('',#803,1.5);
#236=VECTOR('',#806,10.);
#237=VECTOR('',#807,10.);
#238=VECTOR('',#808,10.);
#239=VECTOR('',#809,10.);
#240=VECTOR('',#810,10.);
#241=VECTOR('',#813,10.);
#242=VECTOR('',#814,10.);
#243=VECTOR('',#821,10.);
#244=VECTOR('',#824,0.249999999999999);
#245=VECTOR('',#825,10.);
#246=VECTOR('',#828,0.25);
#247=VECTOR('',#831,10.);
#248=VECTOR('',#834,10.);
#249=VECTOR('',#835,10.);
#250=VECTOR('',#836,10.);
#251=VECTOR('',#837,10.);
#252=VECTOR('',#840,10.);
#253=VECTOR('',#841,10.);
#254=VECTOR('',#842,10.);
#255=VECTOR('',#845,10.);
#256=VECTOR('',#846,10.);
#257=VECTOR('',#847,10.);
#258=VECTOR('',#848,10.);
#259=VECTOR('',#849,10.);
#260=VECTOR('',#852,10.);
#261=VECTOR('',#853,10.);
#262=VECTOR('',#856,10.);
#263=VECTOR('',#857,10.);
#264=VECTOR('',#860,10.);
#265=VECTOR('',#861,10.);
#266=VECTOR('',#864,10.);
#267=VECTOR('',#869,10.);
#268=VERTEX_POINT('',#880);
#269=VERTEX_POINT('',#881);
#270=VERTEX_POINT('',#883);
#271=VERTEX_POINT('',#885);
#272=VERTEX_POINT('',#889);
#273=VERTEX_POINT('',#891);
#274=VERTEX_POINT('',#895);
#275=VERTEX_POINT('',#897);
#276=VERTEX_POINT('',#904);
#277=VERTEX_POINT('',#906);
#278=VERTEX_POINT('',#910);
#279=VERTEX_POINT('',#911);
#280=VERTEX_POINT('',#913);
#281=VERTEX_POINT('',#915);
#282=VERTEX_POINT('',#918);
#283=VERTEX_POINT('',#920);
#284=VERTEX_POINT('',#923);
#285=VERTEX_POINT('',#924);
#286=VERTEX_POINT('',#926);
#287=VERTEX_POINT('',#928);
#288=VERTEX_POINT('',#930);
#289=VERTEX_POINT('',#932);
#290=VERTEX_POINT('',#935);
#291=VERTEX_POINT('',#938);
#292=VERTEX_POINT('',#939);
#293=VERTEX_POINT('',#941);
#294=VERTEX_POINT('',#943);
#295=VERTEX_POINT('',#947);
#296=VERTEX_POINT('',#948);
#297=VERTEX_POINT('',#950);
#298=VERTEX_POINT('',#952);
#299=VERTEX_POINT('',#959);
#300=VERTEX_POINT('',#963);
#301=VERTEX_POINT('',#967);
#302=VERTEX_POINT('',#968);
#303=VERTEX_POINT('',#970);
#304=VERTEX_POINT('',#972);
#305=VERTEX_POINT('',#976);
#306=VERTEX_POINT('',#977);
#307=VERTEX_POINT('',#979);
#308=VERTEX_POINT('',#982);
#309=VERTEX_POINT('',#986);
#310=VERTEX_POINT('',#990);
#311=VERTEX_POINT('',#992);
#312=VERTEX_POINT('',#994);
#313=VERTEX_POINT('',#996);
#314=VERTEX_POINT('',#1000);
#315=VERTEX_POINT('',#1001);
#316=VERTEX_POINT('',#1003);
#317=VERTEX_POINT('',#1005);
#318=VERTEX_POINT('',#1007);
#319=VERTEX_POINT('',#1009);
#320=VERTEX_POINT('',#1023);
#321=VERTEX_POINT('',#1025);
#322=VERTEX_POINT('',#1027);
#323=VERTEX_POINT('',#1029);
#324=VERTEX_POINT('',#1035);
#325=VERTEX_POINT('',#1037);
#326=VERTEX_POINT('',#1039);
#327=VERTEX_POINT('',#1041);
#328=EDGE_CURVE('',#268,#269,#128,.T.);
#329=EDGE_CURVE('',#270,#268,#129,.T.);
#330=EDGE_CURVE('',#271,#270,#130,.T.);
#331=EDGE_CURVE('',#271,#269,#131,.T.);
#332=EDGE_CURVE('',#269,#272,#132,.T.);
#333=EDGE_CURVE('',#273,#271,#133,.T.);
#334=EDGE_CURVE('',#273,#272,#134,.T.);
#335=EDGE_CURVE('',#272,#274,#135,.T.);
#336=EDGE_CURVE('',#275,#273,#136,.T.);
#337=EDGE_CURVE('',#275,#274,#137,.T.);
#338=EDGE_CURVE('',#274,#268,#138,.T.);
#339=EDGE_CURVE('',#270,#275,#139,.T.);
#340=EDGE_CURVE('',#276,#276,#28,.T.);
#341=EDGE_CURVE('',#276,#277,#140,.T.);
#342=EDGE_CURVE('',#277,#277,#29,.T.);
#343=EDGE_CURVE('',#278,#279,#141,.T.);
#344=EDGE_CURVE('',#279,#280,#142,.T.);
#345=EDGE_CURVE('',#280,#281,#143,.T.);
#346=EDGE_CURVE('',#281,#278,#144,.T.);
#347=EDGE_CURVE('',#282,#282,#30,.T.);
#348=EDGE_CURVE('',#283,#283,#31,.T.);
#349=EDGE_CURVE('',#284,#285,#145,.T.);
#350=EDGE_CURVE('',#286,#284,#146,.T.);
#351=EDGE_CURVE('',#287,#286,#147,.T.);
#352=EDGE_CURVE('',#287,#288,#32,.T.);
#353=EDGE_CURVE('',#288,#289,#33,.T.);
#354=EDGE_CURVE('',#289,#285,#34,.T.);
#355=EDGE_CURVE('',#290,#290,#35,.T.);
#356=EDGE_CURVE('',#291,#292,#148,.T.);
#357=EDGE_CURVE('',#293,#291,#149,.T.);
#358=EDGE_CURVE('',#294,#293,#150,.T.);
#359=EDGE_CURVE('',#292,#294,#151,.T.);
#360=EDGE_CURVE('',#295,#296,#152,.T.);
#361=EDGE_CURVE('',#297,#296,#153,.T.);
#362=EDGE_CURVE('',#298,#297,#154,.T.);
#363=EDGE_CURVE('',#298,#295,#155,.T.);
#364=EDGE_CURVE('',#293,#297,#156,.T.);
#365=EDGE_CURVE('',#296,#294,#157,.T.);
#366=EDGE_CURVE('',#299,#299,#36,.T.);
#367=EDGE_CURVE('',#299,#283,#158,.T.);
#368=EDGE_CURVE('',#300,#300,#37,.T.);
#369=EDGE_CURVE('',#300,#282,#159,.T.);
#370=EDGE_CURVE('',#301,#302,#160,.T.);
#371=EDGE_CURVE('',#301,#303,#161,.T.);
#372=EDGE_CURVE('',#304,#303,#162,.T.);
#373=EDGE_CURVE('',#302,#304,#163,.T.);
#374=EDGE_CURVE('',#305,#306,#15,.T.);
#375=EDGE_CURVE('',#307,#305,#38,.T.);
#376=EDGE_CURVE('',#306,#307,#16,.T.);
#377=EDGE_CURVE('',#306,#308,#164,.T.);
#378=EDGE_CURVE('',#308,#308,#39,.T.);
#379=EDGE_CURVE('',#309,#309,#40,.T.);
#380=EDGE_CURVE('',#309,#290,#165,.T.);
#381=EDGE_CURVE('',#305,#310,#166,.F.);
#382=EDGE_CURVE('',#311,#310,#167,.T.);
#383=EDGE_CURVE('',#311,#312,#168,.T.);
#384=EDGE_CURVE('',#312,#313,#169,.T.);
#385=EDGE_CURVE('',#313,#307,#170,.F.);
#386=EDGE_CURVE('',#314,#315,#171,.F.);
#387=EDGE_CURVE('',#314,#316,#172,.T.);
#388=EDGE_CURVE('',#316,#317,#41,.F.);
#389=EDGE_CURVE('',#317,#318,#42,.F.);
#390=EDGE_CURVE('',#318,#319,#43,.F.);
#391=EDGE_CURVE('',#315,#319,#173,.T.);
#392=EDGE_CURVE('',#288,#318,#174,.T.);
#393=EDGE_CURVE('',#319,#287,#175,.T.);
#394=EDGE_CURVE('',#317,#289,#176,.T.);
#395=EDGE_CURVE('',#285,#316,#177,.T.);
#396=EDGE_CURVE('',#284,#278,#178,.T.);
#397=EDGE_CURVE('',#314,#303,#179,.T.);
#398=EDGE_CURVE('',#311,#301,#180,.T.);
#399=EDGE_CURVE('',#310,#320,#181,.T.);
#400=EDGE_CURVE('',#320,#321,#44,.T.);
#401=EDGE_CURVE('',#321,#322,#182,.T.);
#402=EDGE_CURVE('',#322,#323,#183,.T.);
#403=EDGE_CURVE('',#323,#279,#184,.T.);
#404=EDGE_CURVE('',#315,#304,#185,.T.);
#405=EDGE_CURVE('',#291,#286,#186,.T.);
#406=EDGE_CURVE('',#324,#292,#187,.T.);
#407=EDGE_CURVE('',#325,#324,#188,.T.);
#408=EDGE_CURVE('',#326,#325,#189,.T.);
#409=EDGE_CURVE('',#327,#326,#45,.T.);
#410=EDGE_CURVE('',#313,#327,#190,.T.);
#411=EDGE_CURVE('',#302,#312,#191,.T.);
#412=EDGE_CURVE('',#295,#280,#192,.T.);
#413=EDGE_CURVE('',#281,#298,#193,.T.);
#414=EDGE_CURVE('',#320,#327,#194,.T.);
#415=EDGE_CURVE('',#326,#321,#195,.T.);
#416=EDGE_CURVE('',#325,#322,#196,.T.);
#417=EDGE_CURVE('',#323,#324,#197,.T.);
#418=ORIENTED_EDGE('',*,*,#328,.F.);
#419=ORIENTED_EDGE('',*,*,#329,.F.);
#420=ORIENTED_EDGE('',*,*,#330,.F.);
#421=ORIENTED_EDGE('',*,*,#331,.T.);
#422=ORIENTED_EDGE('',*,*,#332,.F.);
#423=ORIENTED_EDGE('',*,*,#331,.F.);
#424=ORIENTED_EDGE('',*,*,#333,.F.);
#425=ORIENTED_EDGE('',*,*,#334,.T.);
#426=ORIENTED_EDGE('',*,*,#335,.F.);
#427=ORIENTED_EDGE('',*,*,#334,.F.);
#428=ORIENTED_EDGE('',*,*,#336,.F.);
#429=ORIENTED_EDGE('',*,*,#337,.T.);
#430=ORIENTED_EDGE('',*,*,#338,.F.);
#431=ORIENTED_EDGE('',*,*,#337,.F.);
#432=ORIENTED_EDGE('',*,*,#339,.F.);
#433=ORIENTED_EDGE('',*,*,#329,.T.);
#434=ORIENTED_EDGE('',*,*,#340,.F.);
#435=ORIENTED_EDGE('',*,*,#341,.T.);
#436=ORIENTED_EDGE('',*,*,#342,.F.);
#437=ORIENTED_EDGE('',*,*,#341,.F.);
#438=ORIENTED_EDGE('',*,*,#343,.T.);
#439=ORIENTED_EDGE('',*,*,#344,.T.);
#440=ORIENTED_EDGE('',*,*,#345,.T.);
#441=ORIENTED_EDGE('',*,*,#346,.T.);
#442=ORIENTED_EDGE('',*,*,#335,.T.);
#443=ORIENTED_EDGE('',*,*,#338,.T.);
#444=ORIENTED_EDGE('',*,*,#328,.T.);
#445=ORIENTED_EDGE('',*,*,#332,.T.);
#446=ORIENTED_EDGE('',*,*,#347,.T.);
#447=ORIENTED_EDGE('',*,*,#348,.T.);
#448=ORIENTED_EDGE('',*,*,#349,.F.);
#449=ORIENTED_EDGE('',*,*,#350,.F.);
#450=ORIENTED_EDGE('',*,*,#351,.F.);
#451=ORIENTED_EDGE('',*,*,#352,.T.);
#452=ORIENTED_EDGE('',*,*,#353,.T.);
#453=ORIENTED_EDGE('',*,*,#354,.T.);
#454=ORIENTED_EDGE('',*,*,#355,.T.);
#455=ORIENTED_EDGE('',*,*,#356,.F.);
#456=ORIENTED_EDGE('',*,*,#357,.F.);
#457=ORIENTED_EDGE('',*,*,#358,.F.);
#458=ORIENTED_EDGE('',*,*,#359,.F.);
#459=ORIENTED_EDGE('',*,*,#360,.T.);
#460=ORIENTED_EDGE('',*,*,#361,.F.);
#461=ORIENTED_EDGE('',*,*,#362,.F.);
#462=ORIENTED_EDGE('',*,*,#363,.T.);
#463=ORIENTED_EDGE('',*,*,#358,.T.);
#464=ORIENTED_EDGE('',*,*,#364,.T.);
#465=ORIENTED_EDGE('',*,*,#361,.T.);
#466=ORIENTED_EDGE('',*,*,#365,.T.);
#467=ORIENTED_EDGE('',*,*,#366,.F.);
#468=ORIENTED_EDGE('',*,*,#367,.T.);
#469=ORIENTED_EDGE('',*,*,#348,.F.);
#470=ORIENTED_EDGE('',*,*,#367,.F.);
#471=ORIENTED_EDGE('',*,*,#368,.F.);
#472=ORIENTED_EDGE('',*,*,#369,.T.);
#473=ORIENTED_EDGE('',*,*,#347,.F.);
#474=ORIENTED_EDGE('',*,*,#369,.F.);
#475=ORIENTED_EDGE('',*,*,#370,.F.);
#476=ORIENTED_EDGE('',*,*,#371,.T.);
#477=ORIENTED_EDGE('',*,*,#372,.F.);
#478=ORIENTED_EDGE('',*,*,#373,.F.);
#479=ORIENTED_EDGE('',*,*,#336,.T.);
#480=ORIENTED_EDGE('',*,*,#333,.T.);
#481=ORIENTED_EDGE('',*,*,#330,.T.);
#482=ORIENTED_EDGE('',*,*,#339,.T.);
#483=ORIENTED_EDGE('',*,*,#366,.T.);
#484=ORIENTED_EDGE('',*,*,#368,.T.);
#485=ORIENTED_EDGE('',*,*,#374,.F.);
#486=ORIENTED_EDGE('',*,*,#375,.F.);
#487=ORIENTED_EDGE('',*,*,#376,.F.);
#488=ORIENTED_EDGE('',*,*,#377,.T.);
#489=ORIENTED_EDGE('',*,*,#378,.F.);
#490=ORIENTED_EDGE('',*,*,#377,.F.);
#491=ORIENTED_EDGE('',*,*,#379,.F.);
#492=ORIENTED_EDGE('',*,*,#380,.T.);
#493=ORIENTED_EDGE('',*,*,#355,.F.);
#494=ORIENTED_EDGE('',*,*,#380,.F.);
#495=ORIENTED_EDGE('',*,*,#375,.T.);
#496=ORIENTED_EDGE('',*,*,#381,.T.);
#497=ORIENTED_EDGE('',*,*,#382,.F.);
#498=ORIENTED_EDGE('',*,*,#383,.T.);
#499=ORIENTED_EDGE('',*,*,#384,.T.);
#500=ORIENTED_EDGE('',*,*,#385,.T.);
#501=ORIENTED_EDGE('',*,*,#386,.F.);
#502=ORIENTED_EDGE('',*,*,#387,.T.);
#503=ORIENTED_EDGE('',*,*,#388,.T.);
#504=ORIENTED_EDGE('',*,*,#389,.T.);
#505=ORIENTED_EDGE('',*,*,#390,.T.);
#506=ORIENTED_EDGE('',*,*,#391,.F.);
#507=ORIENTED_EDGE('',*,*,#379,.T.);
#508=ORIENTED_EDGE('',*,*,#390,.F.);
#509=ORIENTED_EDGE('',*,*,#392,.F.);
#510=ORIENTED_EDGE('',*,*,#352,.F.);
#511=ORIENTED_EDGE('',*,*,#393,.F.);
#512=ORIENTED_EDGE('',*,*,#353,.F.);
#513=ORIENTED_EDGE('',*,*,#392,.T.);
#514=ORIENTED_EDGE('',*,*,#389,.F.);
#515=ORIENTED_EDGE('',*,*,#394,.T.);
#516=ORIENTED_EDGE('',*,*,#354,.F.);
#517=ORIENTED_EDGE('',*,*,#394,.F.);
#518=ORIENTED_EDGE('',*,*,#388,.F.);
#519=ORIENTED_EDGE('',*,*,#395,.F.);
#520=ORIENTED_EDGE('',*,*,#343,.F.);
#521=ORIENTED_EDGE('',*,*,#396,.F.);
#522=ORIENTED_EDGE('',*,*,#349,.T.);
#523=ORIENTED_EDGE('',*,*,#395,.T.);
#524=ORIENTED_EDGE('',*,*,#387,.F.);
#525=ORIENTED_EDGE('',*,*,#397,.T.);
#526=ORIENTED_EDGE('',*,*,#371,.F.);
#527=ORIENTED_EDGE('',*,*,#398,.F.);
#528=ORIENTED_EDGE('',*,*,#382,.T.);
#529=ORIENTED_EDGE('',*,*,#399,.T.);
#530=ORIENTED_EDGE('',*,*,#400,.T.);
#531=ORIENTED_EDGE('',*,*,#401,.T.);
#532=ORIENTED_EDGE('',*,*,#402,.T.);
#533=ORIENTED_EDGE('',*,*,#403,.T.);
#534=ORIENTED_EDGE('',*,*,#373,.T.);
#535=ORIENTED_EDGE('',*,*,#404,.F.);
#536=ORIENTED_EDGE('',*,*,#391,.T.);
#537=ORIENTED_EDGE('',*,*,#393,.T.);
#538=ORIENTED_EDGE('',*,*,#351,.T.);
#539=ORIENTED_EDGE('',*,*,#405,.F.);
#540=ORIENTED_EDGE('',*,*,#356,.T.);
#541=ORIENTED_EDGE('',*,*,#406,.F.);
#542=ORIENTED_EDGE('',*,*,#407,.F.);
#543=ORIENTED_EDGE('',*,*,#408,.F.);
#544=ORIENTED_EDGE('',*,*,#409,.F.);
#545=ORIENTED_EDGE('',*,*,#410,.F.);
#546=ORIENTED_EDGE('',*,*,#384,.F.);
#547=ORIENTED_EDGE('',*,*,#411,.F.);
#548=ORIENTED_EDGE('',*,*,#340,.T.);
#549=ORIENTED_EDGE('',*,*,#412,.F.);
#550=ORIENTED_EDGE('',*,*,#363,.F.);
#551=ORIENTED_EDGE('',*,*,#413,.F.);
#552=ORIENTED_EDGE('',*,*,#345,.F.);
#553=ORIENTED_EDGE('',*,*,#342,.T.);
#554=ORIENTED_EDGE('',*,*,#414,.T.);
#555=ORIENTED_EDGE('',*,*,#409,.T.);
#556=ORIENTED_EDGE('',*,*,#415,.T.);
#557=ORIENTED_EDGE('',*,*,#400,.F.);
#558=ORIENTED_EDGE('',*,*,#415,.F.);
#559=ORIENTED_EDGE('',*,*,#408,.T.);
#560=ORIENTED_EDGE('',*,*,#416,.T.);
#561=ORIENTED_EDGE('',*,*,#401,.F.);
#562=ORIENTED_EDGE('',*,*,#374,.T.);
#563=ORIENTED_EDGE('',*,*,#376,.T.);
#564=ORIENTED_EDGE('',*,*,#385,.F.);
#565=ORIENTED_EDGE('',*,*,#410,.T.);
#566=ORIENTED_EDGE('',*,*,#414,.F.);
#567=ORIENTED_EDGE('',*,*,#399,.F.);
#568=ORIENTED_EDGE('',*,*,#381,.F.);
#569=ORIENTED_EDGE('',*,*,#417,.F.);
#570=ORIENTED_EDGE('',*,*,#402,.F.);
#571=ORIENTED_EDGE('',*,*,#416,.F.);
#572=ORIENTED_EDGE('',*,*,#407,.T.);
#573=ORIENTED_EDGE('',*,*,#378,.T.);
#574=ORIENTED_EDGE('',*,*,#346,.F.);
#575=ORIENTED_EDGE('',*,*,#413,.T.);
#576=ORIENTED_EDGE('',*,*,#362,.T.);
#577=ORIENTED_EDGE('',*,*,#364,.F.);
#578=ORIENTED_EDGE('',*,*,#357,.T.);
#579=ORIENTED_EDGE('',*,*,#405,.T.);
#580=ORIENTED_EDGE('',*,*,#350,.T.);
#581=ORIENTED_EDGE('',*,*,#396,.T.);
#582=ORIENTED_EDGE('',*,*,#406,.T.);
#583=ORIENTED_EDGE('',*,*,#359,.T.);
#584=ORIENTED_EDGE('',*,*,#365,.F.);
#585=ORIENTED_EDGE('',*,*,#360,.F.);
#586=ORIENTED_EDGE('',*,*,#412,.T.);
#587=ORIENTED_EDGE('',*,*,#344,.F.);
#588=ORIENTED_EDGE('',*,*,#403,.F.);
#589=ORIENTED_EDGE('',*,*,#417,.T.);
#590=ORIENTED_EDGE('',*,*,#370,.T.);
#591=ORIENTED_EDGE('',*,*,#411,.T.);
#592=ORIENTED_EDGE('',*,*,#383,.F.);
#593=ORIENTED_EDGE('',*,*,#398,.T.);
#594=ORIENTED_EDGE('',*,*,#372,.T.);
#595=ORIENTED_EDGE('',*,*,#397,.F.);
#596=ORIENTED_EDGE('',*,*,#386,.T.);
#597=ORIENTED_EDGE('',*,*,#404,.T.);
#598=PLANE('',#653);
#599=PLANE('',#654);
#600=PLANE('',#655);
#601=PLANE('',#656);
#602=PLANE('',#660);
#603=PLANE('',#663);
#604=PLANE('',#668);
#605=PLANE('',#669);
#606=PLANE('',#670);
#607=PLANE('',#675);
#608=PLANE('',#683);
#609=PLANE('',#684);
#610=PLANE('',#691);
#611=PLANE('',#693);
#612=PLANE('',#695);
#613=PLANE('',#697);
#614=PLANE('',#698);
#615=PLANE('',#699);
#616=PLANE('',#700);
#617=PLANE('',#701);
#618=PLANE('',#702);
#619=PLANE('',#703);
#620=ADVANCED_FACE('',(#55),#598,.F.);
#621=ADVANCED_FACE('',(#56),#599,.F.);
#622=ADVANCED_FACE('',(#57),#600,.F.);
#623=ADVANCED_FACE('',(#58),#601,.F.);
#624=ADVANCED_FACE('',(#59),#46,.F.);
#625=ADVANCED_FACE('',(#60,#17,#18,#19),#602,.T.);
#626=ADVANCED_FACE('',(#61,#20),#603,.T.);
#627=ADVANCED_FACE('',(#62),#604,.F.);
#628=ADVANCED_FACE('',(#63),#605,.T.);
#629=ADVANCED_FACE('',(#64),#606,.T.);
#630=ADVANCED_FACE('',(#65),#47,.F.);
#631=ADVANCED_FACE('',(#66),#48,.F.);
#632=ADVANCED_FACE('',(#67,#21,#22,#23),#607,.T.);
#633=ADVANCED_FACE('',(#68),#49,.F.);
#634=ADVANCED_FACE('',(#69),#50,.F.);
#635=ADVANCED_FACE('',(#70),#608,.T.);
#636=ADVANCED_FACE('',(#71,#24),#609,.F.);
#637=ADVANCED_FACE('',(#72),#51,.F.);
#638=ADVANCED_FACE('',(#73),#52,.T.);
#639=ADVANCED_FACE('',(#74),#53,.F.);
#640=ADVANCED_FACE('',(#75),#610,.T.);
#641=ADVANCED_FACE('',(#76,#25),#611,.F.);
#642=ADVANCED_FACE('',(#77,#26),#612,.T.);
#643=ADVANCED_FACE('',(#78),#54,.T.);
#644=ADVANCED_FACE('',(#79),#613,.T.);
#645=ADVANCED_FACE('',(#80),#614,.F.);
#646=ADVANCED_FACE('',(#81,#27),#615,.T.);
#647=ADVANCED_FACE('',(#82),#616,.T.);
#648=ADVANCED_FACE('',(#83),#617,.T.);
#649=ADVANCED_FACE('',(#84),#618,.F.);
#650=ADVANCED_FACE('',(#85),#619,.F.);
#651=CLOSED_SHELL('',(#620,#621,#622,#623,#624,#625,#626,#627,#628,#629,
#630,#631,#632,#633,#634,#635,#636,#637,#638,#639,#640,#641,#642,#643,#644,
#645,#646,#647,#648,#649,#650));
#652=AXIS2_PLACEMENT_3D('',#878,#704,#705);
#653=AXIS2_PLACEMENT_3D('',#879,#706,#707);
#654=AXIS2_PLACEMENT_3D('',#888,#712,#713);
#655=AXIS2_PLACEMENT_3D('',#894,#717,#718);
#656=AXIS2_PLACEMENT_3D('',#900,#722,#723);
#657=AXIS2_PLACEMENT_3D('',#903,#726,#727);
#658=AXIS2_PLACEMENT_3D('',#905,#728,#729);
#659=AXIS2_PLACEMENT_3D('',#908,#731,#732);
#660=AXIS2_PLACEMENT_3D('',#909,#733,#734);
#661=AXIS2_PLACEMENT_3D('',#919,#739,#740);
#662=AXIS2_PLACEMENT_3D('',#921,#741,#742);
#663=AXIS2_PLACEMENT_3D('',#922,#743,#744);
#664=AXIS2_PLACEMENT_3D('',#931,#748,#749);
#665=AXIS2_PLACEMENT_3D('',#933,#750,#751);
#666=AXIS2_PLACEMENT_3D('',#934,#752,#753);
#667=AXIS2_PLACEMENT_3D('',#936,#754,#755);
#668=AXIS2_PLACEMENT_3D('',#937,#756,#757);
#669=AXIS2_PLACEMENT_3D('',#946,#762,#763);
#670=AXIS2_PLACEMENT_3D('',#955,#768,#769);
#671=AXIS2_PLACEMENT_3D('',#958,#772,#773);
#672=AXIS2_PLACEMENT_3D('',#960,#774,#775);
#673=AXIS2_PLACEMENT_3D('',#962,#777,#778);
#674=AXIS2_PLACEMENT_3D('',#964,#779,#780);
#675=AXIS2_PLACEMENT_3D('',#966,#782,#783);
#676=AXIS2_PLACEMENT_3D('',#975,#788,#789);
#677=AXIS2_PLACEMENT_3D('',#978,#790,#791);
#678=AXIS2_PLACEMENT_3D('',#980,#792,#793);
#679=AXIS2_PLACEMENT_3D('',#981,#794,#795);
#680=AXIS2_PLACEMENT_3D('',#984,#797,#798);
#681=AXIS2_PLACEMENT_3D('',#985,#799,#800);
#682=AXIS2_PLACEMENT_3D('',#987,#801,#802);
#683=AXIS2_PLACEMENT_3D('',#989,#804,#805);
#684=AXIS2_PLACEMENT_3D('',#999,#811,#812);
#685=AXIS2_PLACEMENT_3D('',#1006,#815,#816);
#686=AXIS2_PLACEMENT_3D('',#1008,#817,#818);
#687=AXIS2_PLACEMENT_3D('',#1010,#819,#820);
#688=AXIS2_PLACEMENT_3D('',#1012,#822,#823);
#689=AXIS2_PLACEMENT_3D('',#1015,#826,#827);
#690=AXIS2_PLACEMENT_3D('',#1017,#829,#830);
#691=AXIS2_PLACEMENT_3D('',#1019,#832,#833);
#692=AXIS2_PLACEMENT_3D('',#1026,#838,#839);
#693=AXIS2_PLACEMENT_3D('',#1032,#843,#844);
#694=AXIS2_PLACEMENT_3D('',#1042,#850,#851);
#695=AXIS2_PLACEMENT_3D('',#1045,#854,#855);
#696=AXIS2_PLACEMENT_3D('',#1048,#858,#859);
#697=AXIS2_PLACEMENT_3D('',#1051,#862,#863);
#698=AXIS2_PLACEMENT_3D('',#1053,#865,#866);
#699=AXIS2_PLACEMENT_3D('',#1054,#867,#868);
#700=AXIS2_PLACEMENT_3D('',#1056,#870,#871);
#701=AXIS2_PLACEMENT_3D('',#1057,#872,#873);
#702=AXIS2_PLACEMENT_3D('',#1058,#874,#875);
#703=AXIS2_PLACEMENT_3D('',#1059,#876,#877);
#704=DIRECTION('axis',(0.,0.,1.));
#705=DIRECTION('refdir',(1.,0.,0.));
#706=DIRECTION('center_axis',(0.90630778703665,0.422618261740699,0.));
#707=DIRECTION('ref_axis',(-0.422618261740699,0.90630778703665,0.));
#708=DIRECTION('',(0.422618261740699,-0.90630778703665,-4.02481509026065E-15));
#709=DIRECTION('',(0.,0.,1.));
#710=DIRECTION('',(-0.422618261740699,0.90630778703665,-5.6419177620065E-76));
#711=DIRECTION('',(0.,0.,1.));
#712=DIRECTION('center_axis',(0.422618261740699,-0.90630778703665,0.));
#713=DIRECTION('ref_axis',(0.90630778703665,0.422618261740699,0.));
#714=DIRECTION('',(-0.90630778703665,-0.422618261740699,-1.87680209924634E-15));
#715=DIRECTION('',(0.90630778703665,0.422618261740699,1.20991316855688E-75));
#716=DIRECTION('',(0.,0.,1.));
#717=DIRECTION('center_axis',(-0.90630778703665,-0.4226182617407,0.));
#718=DIRECTION('ref_axis',(0.4226182617407,-0.90630778703665,0.));
#719=DIRECTION('',(-0.4226182617407,0.90630778703665,4.02481509026065E-15));
#720=DIRECTION('',(0.4226182617407,-0.90630778703665,5.64191776200651E-76));
#721=DIRECTION('',(0.,0.,1.));
#722=DIRECTION('center_axis',(-0.422618261740699,0.90630778703665,0.));
#723=DIRECTION('ref_axis',(-0.90630778703665,-0.422618261740699,0.));
#724=DIRECTION('',(0.90630778703665,0.422618261740699,1.87680209924634E-15));
#725=DIRECTION('',(-0.90630778703665,-0.422618261740699,-1.20991316855688E-75));
#726=DIRECTION('center_axis',(0.,1.,0.));
#727=DIRECTION('ref_axis',(1.,0.,0.));
#728=DIRECTION('center_axis',(-2.22044604925031E-16,1.,5.31519273039293E-15));
#729=DIRECTION('ref_axis',(1.,0.,0.));
#730=DIRECTION('',(0.,1.,0.));
#731=DIRECTION('center_axis',(2.22044604925031E-16,-1.,0.));
#732=DIRECTION('ref_axis',(1.,0.,0.));
#733=DIRECTION('center_axis',(9.86076131526265E-31,-4.44089209850063E-15,
1.));
#734=DIRECTION('ref_axis',(-2.22044604925031E-16,1.,4.44089209850063E-15));
#735=DIRECTION('',(1.,2.22044604925031E-16,1.3349914740476E-75));
#736=DIRECTION('',(-2.22044604925031E-16,1.,4.44089209850063E-15));
#737=DIRECTION('',(-1.,-2.22044604925031E-16,7.66335097677634E-47));
#738=DIRECTION('',(2.22044604925031E-16,-1.,-4.44089209850063E-15));
#739=DIRECTION('center_axis',(-9.86076131526265E-31,4.44089209850063E-15,
-1.));
#740=DIRECTION('ref_axis',(2.22044604925031E-16,-1.,0.));
#741=DIRECTION('center_axis',(-9.86076131526265E-31,4.44089209850063E-15,
-1.));
#742=DIRECTION('ref_axis',(2.22044604925031E-16,-1.,0.));
#743=DIRECTION('center_axis',(-1.15042215344731E-30,5.18104078158406E-15,
-1.));
#744=DIRECTION('ref_axis',(2.22044604925031E-16,-1.,-5.18104078158406E-15));
#745=DIRECTION('',(1.,2.22044604925031E-16,1.3349914740476E-75));
#746=DIRECTION('',(2.22044604925031E-16,-1.,-5.18104078158406E-15));
#747=DIRECTION('',(-1.,-2.22044604925031E-16,-5.85464450665002E-61));
#748=DIRECTION('center_axis',(1.15042215344731E-30,-5.18104078158406E-15,
1.));
#749=DIRECTION('ref_axis',(-5.41233724504768E-16,-1.,-5.43765741030767E-15));
#750=DIRECTION('center_axis',(-1.15042215344731E-30,5.18104078158406E-15,
-1.));
#751=DIRECTION('ref_axis',(0.866025403784438,0.5,2.71882870515383E-15));
#752=DIRECTION('center_axis',(1.15042215344731E-30,-5.18104078158406E-15,
1.));
#753=DIRECTION('ref_axis',(-1.67921232474555E-15,1.,5.43765741030767E-15));
#754=DIRECTION('center_axis',(1.15042215344731E-30,-5.18104078158406E-15,
1.));
#755=DIRECTION('ref_axis',(2.22044604925031E-16,-1.,0.));
#756=DIRECTION('center_axis',(-1.64346021921044E-30,7.40148683083438E-15,
-1.));
#757=DIRECTION('ref_axis',(2.22044604925031E-16,-1.,-7.40148683083438E-15));
#758=DIRECTION('',(1.,2.22044604925031E-16,8.3637778666429E-61));
#759=DIRECTION('',(-2.22044604925031E-16,1.,7.40148683083438E-15));
#760=DIRECTION('',(-1.,-2.22044604925031E-16,-1.3349914740476E-75));
#761=DIRECTION('',(2.22044604925031E-16,-1.,-7.40148683083438E-15));
#762=DIRECTION('center_axis',(-9.86076131526264E-31,4.44089209850063E-15,
-1.));
#763=DIRECTION('ref_axis',(1.,2.22044604925031E-16,-7.66335097677634E-47));
#764=DIRECTION('',(2.22044604925031E-16,-1.,-4.44089209850063E-15));
#765=DIRECTION('',(1.,2.22044604925031E-16,-7.66335097677634E-47));
#766=DIRECTION('',(2.22044604925031E-16,-1.,-4.44089209850063E-15));
#767=DIRECTION('',(1.,2.22044604925031E-16,-7.66335097677634E-47));
#768=DIRECTION('center_axis',(2.22044604925031E-16,-1.,-4.44089209850063E-15));
#769=DIRECTION('ref_axis',(9.86076131526264E-31,-4.44089209850063E-15,1.));
#770=DIRECTION('',(-9.86076131526264E-31,4.44089209850063E-15,-1.));
#771=DIRECTION('',(9.86076131526264E-31,-4.44089209850063E-15,1.));
#772=DIRECTION('center_axis',(-1.3349914740476E-75,-2.96427654433184E-91,
1.));
#773=DIRECTION('ref_axis',(2.22044604925031E-16,-1.,0.));
#774=DIRECTION('center_axis',(-1.3349914740476E-75,-2.96427654433184E-91,
1.));
#775=DIRECTION('ref_axis',(2.22044604925031E-16,-1.,0.));
#776=DIRECTION('',(-1.3349914740476E-75,-2.96427654433184E-91,1.));
#777=DIRECTION('center_axis',(-1.3349914740476E-75,-2.96427654433184E-91,
1.));
#778=DIRECTION('ref_axis',(2.22044604925031E-16,-1.,0.));
#779=DIRECTION('center_axis',(-1.3349914740476E-75,-2.96427654433184E-91,
1.));
#780=DIRECTION('ref_axis',(2.22044604925031E-16,-1.,0.));
#781=DIRECTION('',(-1.3349914740476E-75,-2.96427654433184E-91,1.));
#782=DIRECTION('center_axis',(1.3349914740476E-75,2.96427654433184E-91,
-1.));
#783=DIRECTION('ref_axis',(2.22044604925031E-16,-1.,0.));
#784=DIRECTION('',(-2.22044604925031E-16,1.,9.48590852208263E-122));
#785=DIRECTION('',(-1.,-2.22044604925031E-16,-1.3349914740476E-75));
#786=DIRECTION('',(2.22044604925031E-16,-1.,-9.48590852208263E-122));
#787=DIRECTION('',(-1.,-2.22044604925031E-16,-1.3349914740476E-75));
#788=DIRECTION('center_axis',(1.3349914740476E-75,2.96427654433184E-91,
-1.));
#789=DIRECTION('ref_axis',(2.22044604925031E-16,-1.,0.));
#790=DIRECTION('center_axis',(0.707106781186547,3.87616575737557E-15,-0.707106781186548));
#791=DIRECTION('ref_axis',(-0.707106781186548,-1.57009245868378E-16,-0.707106781186547));
#792=DIRECTION('center_axis',(-1.19150865892757E-30,5.36607795235492E-15,
-1.));
#793=DIRECTION('ref_axis',(2.22044604925031E-16,-1.,0.));
#794=DIRECTION('center_axis',(0.707106781186547,3.87616575737557E-15,-0.707106781186548));
#795=DIRECTION('ref_axis',(-0.707106781186548,-1.57009245868378E-16,-0.707106781186547));
#796=DIRECTION('',(1.3349914740476E-75,2.96427654433184E-91,-1.));
#797=DIRECTION('center_axis',(1.17976965736178E-30,-5.31321018927753E-15,
1.));
#798=DIRECTION('ref_axis',(2.22044604925031E-16,-1.,0.));
#799=DIRECTION('center_axis',(1.3349914740476E-75,2.96427654433184E-91,
-1.));
#800=DIRECTION('ref_axis',(2.22044604925031E-16,-1.,0.));
#801=DIRECTION('center_axis',(-1.1802098699205E-30,5.31519273039293E-15,
-1.));
#802=DIRECTION('ref_axis',(2.22044604925031E-16,-1.,0.));
#803=DIRECTION('',(1.3349914740476E-75,2.96427654433184E-91,-1.));
#804=DIRECTION('center_axis',(1.19150865892757E-30,-5.36607795235492E-15,
1.));
#805=DIRECTION('ref_axis',(-2.22044604925031E-16,1.,5.36607795235492E-15));
#806=DIRECTION('',(-1.15648231731782E-16,1.,5.36607795235492E-15));
#807=DIRECTION('',(-1.,-2.22044604925031E-16,-1.3349914740476E-75));
#808=DIRECTION('',(-2.22044604925031E-16,1.,8.88178419700124E-15));
#809=DIRECTION('',(-1.,-2.22044604925031E-16,-6.0637389533161E-61));
#810=DIRECTION('',(-1.15648231731782E-16,1.,5.36607795235492E-15));
#811=DIRECTION('center_axis',(-1.1802098699205E-30,5.31519273039293E-15,
-1.));
#812=DIRECTION('ref_axis',(2.22044604925031E-16,-1.,-5.31519273039293E-15));
#813=DIRECTION('',(2.22044604925031E-16,-1.,-5.31519273039293E-15));
#814=DIRECTION('',(1.,2.22044604925031E-16,1.3349914740476E-75));
#815=DIRECTION('center_axis',(1.1802098699205E-30,-5.31519273039293E-15,
1.));
#816=DIRECTION('ref_axis',(-1.67921232474555E-15,1.,5.43765741030767E-15));
#817=DIRECTION('center_axis',(-1.1802098699205E-30,5.31519273039293E-15,
-1.));
#818=DIRECTION('ref_axis',(0.866025403784438,0.5,2.71882870515383E-15));
#819=DIRECTION('center_axis',(1.1802098699205E-30,-5.31519273039293E-15,
1.));
#820=DIRECTION('ref_axis',(-5.41233724504768E-16,-1.,-5.43765741030767E-15));
#821=DIRECTION('',(1.,2.22044604925031E-16,6.00623798048292E-61));
#822=DIRECTION('center_axis',(1.18275058810128E-30,-5.43765741030767E-15,
1.));
#823=DIRECTION('ref_axis',(-5.41233724504768E-16,-1.,-5.43765741030767E-15));
#824=DIRECTION('',(1.19150865892757E-30,-5.36607795235491E-15,1.));
#825=DIRECTION('',(-1.18275058810128E-30,5.43765741030767E-15,-1.));
#826=DIRECTION('center_axis',(-1.18275058810128E-30,5.43765741030767E-15,
-1.));
#827=DIRECTION('ref_axis',(0.866025403784438,0.5,2.71882870515383E-15));
#828=DIRECTION('',(-1.19150865892757E-30,5.36607795235491E-15,-1.));
#829=DIRECTION('center_axis',(-1.18275058810128E-30,5.43765741030767E-15,
-1.));
#830=DIRECTION('ref_axis',(-1.67921232474555E-15,1.,5.43765741030767E-15));
#831=DIRECTION('',(1.18275058810128E-30,-5.43765741030767E-15,1.));
#832=DIRECTION('center_axis',(2.22044604925031E-16,-1.,-5.9211894646675E-15));
#833=DIRECTION('ref_axis',(1.31476817536835E-30,-5.9211894646675E-15,1.));
#834=DIRECTION('',(1.31476817536835E-30,-5.9211894646675E-15,1.));
#835=DIRECTION('',(1.0076465469034E-30,-5.31519273039293E-15,1.));
#836=DIRECTION('',(9.86076131526265E-31,-4.44089209850063E-15,1.));
#837=DIRECTION('',(-0.707106781186548,3.59999770883923E-15,-0.707106781186547));
#838=DIRECTION('center_axis',(2.22044604925031E-16,-1.,-5.31321018927753E-15));
#839=DIRECTION('ref_axis',(-0.923879532511287,-2.20797036986029E-15,0.382683432365091));
#840=DIRECTION('',(-1.17976965736178E-30,5.31321018927753E-15,-1.));
#841=DIRECTION('',(1.,2.22044604925031E-16,1.3349914740476E-75));
#842=DIRECTION('',(1.17976965736178E-30,-5.31321018927753E-15,1.));
#843=DIRECTION('center_axis',(-2.22044604925031E-16,1.,5.31519273039293E-15));
#844=DIRECTION('ref_axis',(-1.,-2.22044604925031E-16,7.66335097677634E-47));
#845=DIRECTION('',(9.86076131526265E-31,-4.44089209850063E-15,1.));
#846=DIRECTION('',(1.1802098699205E-30,-5.31519273039293E-15,1.));
#847=DIRECTION('',(-9.86076131526264E-31,4.44089209850063E-15,-1.));
#848=DIRECTION('',(1.,2.22044604925031E-16,6.00623798048292E-61));
#849=DIRECTION('',(-1.1802098699205E-30,5.31519273039293E-15,-1.));
#850=DIRECTION('center_axis',(2.22044604925031E-16,-1.,-5.31519273039293E-15));
#851=DIRECTION('ref_axis',(-0.923879532511287,-2.20797036986029E-15,0.382683432365091));
#852=DIRECTION('',(-0.707106781186548,3.6013995771059E-15,-0.707106781186547));
#853=DIRECTION('',(-1.0076465469034E-30,5.31519273039293E-15,-1.));
#854=DIRECTION('center_axis',(-2.22044604925031E-16,1.,0.));
#855=DIRECTION('ref_axis',(1.3349914740476E-75,2.96427654433184E-91,-1.));
#856=DIRECTION('',(9.86076131526265E-31,-4.44089209850063E-15,1.));
#857=DIRECTION('',(-9.86076131526264E-31,4.44089209850063E-15,-1.));
#858=DIRECTION('center_axis',(2.22044604925031E-16,-1.,-5.25968157916167E-15));
#859=DIRECTION('ref_axis',(-0.923879532511287,-2.20797036986029E-15,0.382683432365091));
#860=DIRECTION('',(-2.22044604925031E-16,1.,5.25968157916167E-15));
#861=DIRECTION('',(2.22044604925031E-16,-1.,-5.25968157916167E-15));
#862=DIRECTION('center_axis',(-1.,-2.22044604925031E-16,-1.3349914740476E-75));
#863=DIRECTION('ref_axis',(-1.3349914740476E-75,-2.96427654433184E-91,1.));
#864=DIRECTION('',(2.22044604925031E-16,-1.,-5.31321018927753E-15));
#865=DIRECTION('center_axis',(0.707106781186547,3.87616575737557E-15,-0.707106781186548));
#866=DIRECTION('ref_axis',(2.22044604925031E-16,-1.,-5.25968157916167E-15));
#867=DIRECTION('center_axis',(-1.17976965736178E-30,5.31321018927753E-15,
-1.));
#868=DIRECTION('ref_axis',(2.22044604925031E-16,-1.,-5.31321018927753E-15));
#869=DIRECTION('',(-2.22044604925031E-16,1.,8.88178419700124E-15));
#870=DIRECTION('center_axis',(-1.,-2.22044604925031E-16,7.6633509767764E-47));
#871=DIRECTION('ref_axis',(1.1802098699205E-30,-5.31519273039293E-15,1.));
#872=DIRECTION('center_axis',(1.,2.22044604925031E-16,-7.6633509767764E-47));
#873=DIRECTION('ref_axis',(-1.1802098699205E-30,5.31519273039293E-15,-1.));
#874=DIRECTION('center_axis',(1.,2.22044604925031E-16,1.72563323017096E-31));
#875=DIRECTION('ref_axis',(-2.22044604925031E-16,1.,5.31519273039293E-15));
#876=DIRECTION('center_axis',(-1.,-2.22044604925031E-16,-1.72563323017096E-31));
#877=DIRECTION('ref_axis',(2.22044604925031E-16,-1.,-5.31519273039293E-15));
#878=CARTESIAN_POINT('',(0.,0.,0.));
#879=CARTESIAN_POINT('Origin',(3.1415416228508,0.361546998185602,30.2999985694886));
#880=CARTESIAN_POINT('',(2.2963050993694,2.1741625722589,48.7999985694886));
#881=CARTESIAN_POINT('',(3.1415416228508,0.361546998185601,48.7999985694885));
#882=CARTESIAN_POINT('',(0.097311846722369,6.88991882071428,48.7999985694886));
#883=CARTESIAN_POINT('',(2.2963050993694,2.1741625722589,45.7999985694886));
#884=CARTESIAN_POINT('',(2.2963050993694,2.1741625722589,30.2999985694886));
#885=CARTESIAN_POINT('',(3.1415416228508,0.361546998185601,45.7999985694886));
#886=CARTESIAN_POINT('',(2.90629358886435,0.866038035105801,45.7999985694886));
#887=CARTESIAN_POINT('',(3.1415416228508,0.361546998185601,30.2999985694886));
#888=CARTESIAN_POINT('Origin',(-2.2963050993691,-2.17416257225859,30.2999985694886));
#889=CARTESIAN_POINT('',(-2.2963050993691,-2.1741625722586,48.7999985694885));
#890=CARTESIAN_POINT('',(-8.60392293001824,-5.11545307140531,48.7999985694885));
#891=CARTESIAN_POINT('',(-2.2963050993691,-2.1741625722586,45.7999985694886));
#892=CARTESIAN_POINT('',(-0.912904515698032,-1.52907228579668,45.7999985694886));
#893=CARTESIAN_POINT('',(-2.2963050993691,-2.1741625722586,30.2999985694886));
#894=CARTESIAN_POINT('Origin',(-3.1415416228505,-0.361546998185296,30.2999985694886));
#895=CARTESIAN_POINT('',(-3.1415416228505,-0.361546998185296,48.7999985694885));
#896=CARTESIAN_POINT('',(-5.76315313723823,5.26051703730673,48.7999985694886));
#897=CARTESIAN_POINT('',(-3.1415416228505,-0.361546998185296,45.7999985694886));
#898=CARTESIAN_POINT('',(-2.95417139509625,-0.763363748301746,45.7999985694886));
#899=CARTESIAN_POINT('',(-3.1415416228505,-0.361546998185296,30.2999985694886));
#900=CARTESIAN_POINT('Origin',(2.2963050993694,2.1741625722589,30.2999985694886));
#901=CARTESIAN_POINT('',(-6.73023609238969,-2.03498271210991,48.7999985694885));
#902=CARTESIAN_POINT('',(0.960782321930519,1.55139807349872,45.7999985694886));
#903=CARTESIAN_POINT('Origin',(1.49137279339515E-13,5.25000007450554,42.7999985694886));
#904=CARTESIAN_POINT('',(-1.14999999999985,5.25000007450554,42.7999985694886));
#905=CARTESIAN_POINT('Origin',(1.49137279339515E-13,5.25000007450559,42.7999985694886));
#906=CARTESIAN_POINT('',(-1.14999999999985,8.25000007450551,42.7999985694886));
#907=CARTESIAN_POINT('',(-1.14999999999985,5.25000007450554,42.7999985694886));
#908=CARTESIAN_POINT('Origin',(1.49137279339515E-13,8.25000007450551,42.7999985694886));
#909=CARTESIAN_POINT('Origin',(-21.0000003129242,5.00000007450542,48.7999985694886));
#910=CARTESIAN_POINT('',(-21.0000003129242,-4.99999992549462,48.7999985694885));
#911=CARTESIAN_POINT('',(13.0000000000001,-4.99999992549458,48.7999985694885));
#912=CARTESIAN_POINT('',(-9.99999999999985,-4.99999992549459,48.7999985694885));
#913=CARTESIAN_POINT('',(13.0000001937152,8.25000007450542,48.7999985694886));
#914=CARTESIAN_POINT('',(13.0000001937152,5.00000007450542,48.7999985694886));
#915=CARTESIAN_POINT('',(-21.0000003129242,8.25000007450542,48.7999985694886));
#916=CARTESIAN_POINT('',(7.00000000000014,8.25000007450542,48.7999985694886));
#917=CARTESIAN_POINT('',(-21.0000003129242,5.00000007450542,48.7999985694886));
#918=CARTESIAN_POINT('',(-6.74999999999985,1.50000003725283,48.7999985694886));
#919=CARTESIAN_POINT('Origin',(-6.74999999999985,3.72528285184003E-8,48.7999985694886));
#920=CARTESIAN_POINT('',(6.75000000000015,1.50000003725283,48.7999985694886));
#921=CARTESIAN_POINT('Origin',(6.75000000000015,3.7252832071114E-8,48.7999985694886));
#922=CARTESIAN_POINT('Origin',(-9.99999999999985,2.00000007450553,22.7999985694886));
#923=CARTESIAN_POINT('',(-21.0000003129242,-4.99999992549446,22.7999985694885));
#924=CARTESIAN_POINT('',(-6.86446688704888,-4.99999992549445,22.7999985694885));
#925=CARTESIAN_POINT('',(-10.1499999999998,-4.99999992549446,22.7999985694885));
#926=CARTESIAN_POINT('',(-20.9999999999999,5.25000007450554,22.7999985694886));
#927=CARTESIAN_POINT('',(-21.0000003129242,3.50000007450554,22.7999985694886));
#928=CARTESIAN_POINT('',(-6.64256302050925,5.25000007450552,22.7999985694886));
#929=CARTESIAN_POINT('',(-7.00000002980218,5.25000007450554,22.7999985694886));
#930=CARTESIAN_POINT('',(-6.60098158282444,4.35387517634895,22.7999985694886));
#931=CARTESIAN_POINT('Origin',(-6.4010849073323,4.81217782649096,22.7999985694886));
#932=CARTESIAN_POINT('',(-6.60098158282444,-4.35387517634919,22.7999985694885));
#933=CARTESIAN_POINT('Origin',(-8.49999999999986,-1.18265479653133E-13,
22.7999985694885));
#934=CARTESIAN_POINT('Origin',(-6.4010849073323,-4.81217782649119,22.7999985694885));
#935=CARTESIAN_POINT('',(-6.74999999999985,1.50000003725283,22.7999985694886));
#936=CARTESIAN_POINT('Origin',(-6.74999999999985,3.72528285184003E-8,22.7999985694886));
#937=CARTESIAN_POINT('Origin',(13.0000001937152,5.25000007450567,-0.150000667571987));
#938=CARTESIAN_POINT('',(-21.0000003129242,5.25000007450566,-0.150000667571987));
#939=CARTESIAN_POINT('',(13.0000001937152,5.25000007450567,-0.150000667571987));
#940=CARTESIAN_POINT('',(13.0000001937152,5.25000007450567,-0.150000667571987));
#941=CARTESIAN_POINT('',(-21.0000003129242,-4.99999992549434,-0.150000667572032));
#942=CARTESIAN_POINT('',(-21.0000003129242,5.25000007450566,-0.150000667571987));
#943=CARTESIAN_POINT('',(13.0000001937152,-4.99999992549433,-0.150000667572032));
#944=CARTESIAN_POINT('',(13.0000001937152,-4.99999992549433,-0.150000667572062));
#945=CARTESIAN_POINT('',(13.0000001937152,5.25000007450566,-0.150000667571987));
#946=CARTESIAN_POINT('Origin',(-21.0000003129242,5.25000007450567,-3.00000066757199));
#947=CARTESIAN_POINT('',(13.0000001937152,8.25000007450568,-3.00000066757198));
#948=CARTESIAN_POINT('',(13.0000001937152,-4.99999992549432,-3.00000066757203));
#949=CARTESIAN_POINT('',(13.0000001937152,5.25000007450568,-3.00000066757199));
#950=CARTESIAN_POINT('',(-21.0000003129242,-4.99999992549433,-3.00000066757203));
#951=CARTESIAN_POINT('',(4.50000006705537,-4.99999992549433,-3.00000066757203));
#952=CARTESIAN_POINT('',(-21.0000003129242,8.25000007450567,-3.00000066757198));
#953=CARTESIAN_POINT('',(-21.0000003129242,5.25000007450567,-3.00000066757199));
#954=CARTESIAN_POINT('',(13.0000001937152,8.25000007450568,-3.00000066757198));
#955=CARTESIAN_POINT('Origin',(13.0000001937152,-4.99999992549434,-6.67572032098107E-7));
#956=CARTESIAN_POINT('',(-21.0000003129242,-4.99999992549434,-6.67572032098107E-7));
#957=CARTESIAN_POINT('',(13.0000001937152,-4.99999992549434,-6.67572032098107E-7));
#958=CARTESIAN_POINT('Origin',(6.75000000000015,3.7252832071114E-8,28.7999985694885));
#959=CARTESIAN_POINT('',(6.75000000000015,1.50000003725283,45.7999985694886));
#960=CARTESIAN_POINT('Origin',(6.75000000000015,3.7252832071114E-8,45.7999985694886));
#961=CARTESIAN_POINT('',(6.75000000000015,1.50000003725283,28.7999985694885));
#962=CARTESIAN_POINT('Origin',(-6.74999999999985,3.72528285184003E-8,28.7999985694885));
#963=CARTESIAN_POINT('',(-6.74999999999985,1.50000003725283,45.7999985694886));
#964=CARTESIAN_POINT('Origin',(-6.74999999999985,3.72528285184003E-8,45.7999985694886));
#965=CARTESIAN_POINT('',(-6.74999999999985,1.50000003725283,28.7999985694885));
#966=CARTESIAN_POINT('Origin',(1.47879712756761E-13,0.125000074505634,45.7999985694886));
#967=CARTESIAN_POINT('',(10.1500000000001,-4.99999992549436,45.7999985694886));
#968=CARTESIAN_POINT('',(10.1500000000001,5.25000007450564,45.7999985694886));
#969=CARTESIAN_POINT('',(10.1500000000001,-2.43749992549442,45.7999985694886));
#970=CARTESIAN_POINT('',(-10.1499999999998,-4.99999992549437,45.7999985694886));
#971=CARTESIAN_POINT('',(10.1500000000001,-4.99999992549436,45.7999985694886));
#972=CARTESIAN_POINT('',(-10.1499999999999,5.25000007450563,45.7999985694886));
#973=CARTESIAN_POINT('',(-10.1499999999998,2.56250007450558,45.7999985694886));
#974=CARTESIAN_POINT('',(-2.00000002980218,5.25000007450542,45.7999985694886));
#975=CARTESIAN_POINT('Origin',(6.75000000000015,3.7252832071114E-8,28.7999985694885));
#976=CARTESIAN_POINT('',(7.70355339059342,-1.15790148329547,25.6499985694885));
#977=CARTESIAN_POINT('',(6.75000000000015,1.50000003725283,24.6964451788953));
#978=CARTESIAN_POINT('Origin',(6.75000000000015,3.7252832071114E-8,24.6964451788953));
#979=CARTESIAN_POINT('',(7.70355339059342,1.15790155780114,25.6499985694885));
#980=CARTESIAN_POINT('Origin',(6.75000000000015,3.7252832071114E-8,25.6499985694885));
#981=CARTESIAN_POINT('Origin',(6.75000000000015,3.7252832071114E-8,24.6964451788953));
#982=CARTESIAN_POINT('',(6.75000000000015,1.50000003725283,11.7999985694885));
#983=CARTESIAN_POINT('',(6.75000000000015,1.50000003725283,28.7999985694885));
#984=CARTESIAN_POINT('Origin',(6.75000000000015,3.7252832071114E-8,11.7999985694885));
#985=CARTESIAN_POINT('Origin',(-6.74999999999985,3.72528285184003E-8,28.7999985694885));
#986=CARTESIAN_POINT('',(-6.74999999999985,1.50000003725283,25.7999985694886));
#987=CARTESIAN_POINT('Origin',(-6.74999999999985,3.72528285184003E-8,25.7999985694886));
#988=CARTESIAN_POINT('',(-6.74999999999985,1.50000003725283,28.7999985694885));
#989=CARTESIAN_POINT('Origin',(10.0000000000001,-1.99999992549448,25.6499985694885));
#990=CARTESIAN_POINT('',(7.70355339059342,-4.99999992549448,25.6499985694885));
#991=CARTESIAN_POINT('',(7.70355339059342,-1.50518142966181,25.6499985694885));
#992=CARTESIAN_POINT('',(10.1500000000001,-4.99999992549448,25.6499985694885));
#993=CARTESIAN_POINT('',(11.0000000000001,-4.99999992549448,25.6499985694885));
#994=CARTESIAN_POINT('',(10.1500000000001,5.25000007450553,25.6499985694886));
#995=CARTESIAN_POINT('',(10.1500000000001,5.00000007450553,25.6499985694886));
#996=CARTESIAN_POINT('',(7.70355339059342,5.25000007450553,25.6499985694886));
#997=CARTESIAN_POINT('',(2.99999997019782,5.25000007450553,25.6499985694886));
#998=CARTESIAN_POINT('',(7.70355339059342,-1.50518142966181,25.6499985694885));
#999=CARTESIAN_POINT('Origin',(-9.99999999999985,2.00000007450552,25.7999985694886));
#1000=CARTESIAN_POINT('',(-10.1499999999998,-4.99999992549448,25.7999985694885));
#1001=CARTESIAN_POINT('',(-10.1499999999999,5.25000007450552,25.7999985694886));
#1002=CARTESIAN_POINT('',(-10.1499999999998,3.50000007450552,25.7999985694886));
#1003=CARTESIAN_POINT('',(-6.86446688704888,-4.99999992549446,25.7999985694885));
#1004=CARTESIAN_POINT('',(-10.1499999999998,-4.99999992549448,25.7999985694885));
#1005=CARTESIAN_POINT('',(-6.60098158282444,-4.3538751763492,25.7999985694885));
#1006=CARTESIAN_POINT('Origin',(-6.4010849073323,-4.81217782649121,25.7999985694885));
#1007=CARTESIAN_POINT('',(-6.60098158282444,4.35387517634893,25.7999985694886));
#1008=CARTESIAN_POINT('Origin',(-8.49999999999986,-1.34578451884056E-13,
25.7999985694885));
#1009=CARTESIAN_POINT('',(-6.64256302050925,5.25000007450551,25.7999985694886));
#1010=CARTESIAN_POINT('Origin',(-6.4010849073323,4.81217782649094,25.7999985694886));
#1011=CARTESIAN_POINT('',(-7.00000002980218,5.25000007450553,25.7999985694886));
#1012=CARTESIAN_POINT('Origin',(-6.4010849073323,4.81217782649094,25.7999985694886));
#1013=CARTESIAN_POINT('',(-6.60098158282444,4.35387517634893,25.7999985694886));
#1014=CARTESIAN_POINT('',(-6.64256302050915,5.25000007450552,25.7999985694886));
#1015=CARTESIAN_POINT('Origin',(-8.49999999999986,-1.34578451884056E-13,
25.7999985694886));
#1016=CARTESIAN_POINT('',(-6.60098158282444,-4.3538751763492,25.7999985694885));
#1017=CARTESIAN_POINT('Origin',(-6.4010849073323,-4.81217782649121,25.7999985694885));
#1018=CARTESIAN_POINT('',(-6.86446688704882,-4.99999992549448,25.7999985694885));
#1019=CARTESIAN_POINT('Origin',(-9.99999999999985,-4.99999992549448,25.7999985694885));
#1020=CARTESIAN_POINT('',(-21.0000003129242,-4.99999992549441,12.8999989509582));
#1021=CARTESIAN_POINT('',(-10.1499999999998,-4.99999992549448,25.7999985694885));
#1022=CARTESIAN_POINT('',(10.1500000000001,-4.99999992549449,28.7999985694885));
#1023=CARTESIAN_POINT('',(4.52867965644051,-4.99999992549446,22.4751248353356));
#1024=CARTESIAN_POINT('',(7.80177669529679,-4.99999992549448,25.7482218741919));
#1025=CARTESIAN_POINT('',(3.65000000000015,-4.99999992549445,20.353804491776));
#1026=CARTESIAN_POINT('Origin',(6.65000000000015,-4.99999992549445,20.353804491776));
#1027=CARTESIAN_POINT('',(3.65000000000015,-4.9999999254944,11.7999985694885));
#1028=CARTESIAN_POINT('',(3.65000000000015,-4.99999992549448,25.7999985694885));
#1029=CARTESIAN_POINT('',(13.0000000000001,-4.9999999254944,11.7999985694885));
#1030=CARTESIAN_POINT('',(12.0000000000001,-4.9999999254944,11.7999985694885));
#1031=CARTESIAN_POINT('',(13.0000000000001,-4.99999992549448,25.7999985694885));
#1032=CARTESIAN_POINT('Origin',(-4.0000000596045,5.25000007450559,14.3999989509583));
#1033=CARTESIAN_POINT('',(-10.1499999999999,5.25000007450551,28.7999985694886));
#1034=CARTESIAN_POINT('',(-21.0000003129242,5.25000007450562,7.19999914169316));
#1035=CARTESIAN_POINT('',(13.0000000000001,5.2500000745056,11.7999985694886));
#1036=CARTESIAN_POINT('',(13.0000001937152,5.25000007450567,-6.67571986578963E-7));
#1037=CARTESIAN_POINT('',(3.65000000000015,5.2500000745056,11.7999985694886));
#1038=CARTESIAN_POINT('',(3.99999997019782,5.2500000745056,11.7999985694886));
#1039=CARTESIAN_POINT('',(3.65000000000015,5.25000007450556,20.353804491776));
#1040=CARTESIAN_POINT('',(3.65000000000015,5.25000007450556,20.0999987602234));
#1041=CARTESIAN_POINT('',(4.52867965644051,5.25000007450554,22.4751248353357));
#1042=CARTESIAN_POINT('Origin',(6.65000000000015,5.25000007450556,20.353804491776));
#1043=CARTESIAN_POINT('',(0.951776775763051,5.25000007450556,18.8982219546582));
#1044=CARTESIAN_POINT('',(10.1500000000001,5.25000007450556,20.0999987602234));
#1045=CARTESIAN_POINT('Origin',(-4.0000000596045,8.25000007450551,14.3999989509583));
#1046=CARTESIAN_POINT('',(13.0000001937152,8.25000007450551,28.7999985694886));
#1047=CARTESIAN_POINT('',(-21.0000003129242,8.25000007450566,-6.67571984358517E-7));
#1048=CARTESIAN_POINT('Origin',(6.65000000000015,-1.50518142966179,20.353804491776));
#1049=CARTESIAN_POINT('',(4.52867965644051,-1.5051814296618,22.4751248353356));
#1050=CARTESIAN_POINT('',(3.65000000000015,-1.50518142966179,20.353804491776));
#1051=CARTESIAN_POINT('Origin',(3.65000000000015,-1.99999992549448,25.7999985694885));
#1052=CARTESIAN_POINT('',(3.65000000000015,-1.9999999254944,11.7999985694885));
#1053=CARTESIAN_POINT('Origin',(5.67677669529678,-1.01036293382914,23.6232218741919));
#1054=CARTESIAN_POINT('Origin',(10.0000000000001,-1.9999999254944,11.7999985694885));
#1055=CARTESIAN_POINT('',(13.0000001937152,5.00000007450563,11.7999985694886));
#1056=CARTESIAN_POINT('Origin',(-21.0000003129242,5.00000007450566,-6.67571988799409E-7));
#1057=CARTESIAN_POINT('Origin',(13.0000001937152,5.00000007450551,28.7999985694886));
#1058=CARTESIAN_POINT('Origin',(10.1500000000001,-4.99999992549448,25.7999985694885));
#1059=CARTESIAN_POINT('Origin',(-10.1499999999999,5.00000007450552,25.7999985694886));
#1060=UNCERTAINTY_MEASURE_WITH_UNIT(LENGTH_MEASURE(0.01),#1064,
'DISTANCE_ACCURACY_VALUE',
'Maximum model space distance between geometric entities at asserted c
onnectivities');
#1061=UNCERTAINTY_MEASURE_WITH_UNIT(LENGTH_MEASURE(0.01),#1064,
'DISTANCE_ACCURACY_VALUE',
'Maximum model space distance between geometric entities at asserted c
onnectivities');
#1062=(
GEOMETRIC_REPRESENTATION_CONTEXT(3)
GLOBAL_UNCERTAINTY_ASSIGNED_CONTEXT((#1060))
GLOBAL_UNIT_ASSIGNED_CONTEXT((#1064,#1065,#1066))
REPRESENTATION_CONTEXT('','3D')
);
#1063=(
GEOMETRIC_REPRESENTATION_CONTEXT(3)
GLOBAL_UNCERTAINTY_ASSIGNED_CONTEXT((#1061))
GLOBAL_UNIT_ASSIGNED_CONTEXT((#1064,#1065,#1066))
REPRESENTATION_CONTEXT('','3D')
);
#1064=(
LENGTH_UNIT()
NAMED_UNIT(*)
SI_UNIT(.MILLI.,.METRE.)
);
#1065=(
NAMED_UNIT(*)
PLANE_ANGLE_UNIT()
SI_UNIT($,.RADIAN.)
);
#1066=(
NAMED_UNIT(*)
SI_UNIT($,.STERADIAN.)
SOLID_ANGLE_UNIT()
);
#1067=SHAPE_DEFINITION_REPRESENTATION(#1068,#1069);
#1068=PRODUCT_DEFINITION_SHAPE('',$,#1071);
#1069=SHAPE_REPRESENTATION('',(#652),#1062);
#1070=PRODUCT_DEFINITION_CONTEXT('part definition',#1075,'design');
#1071=PRODUCT_DEFINITION('Zee Cutter2','Filament Guillotine',#1072,#1070);
#1072=PRODUCT_DEFINITION_FORMATION('',$,#1077);
#1073=PRODUCT_RELATED_PRODUCT_CATEGORY('Filament Guillotine',
'Filament Guillotine',(#1077));
#1074=APPLICATION_PROTOCOL_DEFINITION('international standard',
'automotive_design',2009,#1075);
#1075=APPLICATION_CONTEXT(
'Core Data for Automotive Mechanical Design Process');
#1076=PRODUCT_CONTEXT('part definition',#1075,'mechanical');
#1077=PRODUCT('Zee Cutter2','Filament Guillotine',$,(#1076));
#1078=PRESENTATION_STYLE_ASSIGNMENT((#1085));
#1079=PRESENTATION_STYLE_ASSIGNMENT((#1086));
#1080=PRESENTATION_STYLE_ASSIGNMENT((#1087));
#1081=PRESENTATION_STYLE_ASSIGNMENT((#1088));
#1082=PRESENTATION_STYLE_ASSIGNMENT((#1089));
#1083=PRESENTATION_STYLE_ASSIGNMENT((#1090));
#1084=PRESENTATION_STYLE_ASSIGNMENT((#1091));
#1085=SURFACE_STYLE_USAGE(.BOTH.,#1092);
#1086=SURFACE_STYLE_USAGE(.BOTH.,#1093);
#1087=SURFACE_STYLE_USAGE(.BOTH.,#1094);
#1088=SURFACE_STYLE_USAGE(.BOTH.,#1095);
#1089=SURFACE_STYLE_USAGE(.BOTH.,#1096);
#1090=SURFACE_STYLE_USAGE(.BOTH.,#1097);
#1091=SURFACE_STYLE_USAGE(.BOTH.,#1098);
#1092=SURFACE_SIDE_STYLE('',(#1099));
#1093=SURFACE_SIDE_STYLE('',(#1100));
#1094=SURFACE_SIDE_STYLE('',(#1101));
#1095=SURFACE_SIDE_STYLE('',(#1102));
#1096=SURFACE_SIDE_STYLE('',(#1103));
#1097=SURFACE_SIDE_STYLE('',(#1104));
#1098=SURFACE_SIDE_STYLE('',(#1105));
#1099=SURFACE_STYLE_FILL_AREA(#1106);
#1100=SURFACE_STYLE_FILL_AREA(#1107);
#1101=SURFACE_STYLE_FILL_AREA(#1108);
#1102=SURFACE_STYLE_FILL_AREA(#1109);
#1103=SURFACE_STYLE_FILL_AREA(#1110);
#1104=SURFACE_STYLE_FILL_AREA(#1111);
#1105=SURFACE_STYLE_FILL_AREA(#1112);
#1106=FILL_AREA_STYLE('Steel - Satin',(#1113));
#1107=FILL_AREA_STYLE('Opaque(188,80,47)',(#1114));
#1108=FILL_AREA_STYLE('Opaque(24,37,248)',(#1115));
#1109=FILL_AREA_STYLE('Plastic - Matte (Yellow)',(#1116));
#1110=FILL_AREA_STYLE('Opaque(190,188,186)',(#1117));
#1111=FILL_AREA_STYLE('Matte Red',(#1118));
#1112=FILL_AREA_STYLE('Plastic - Matte (Green)',(#1119));
#1113=FILL_AREA_STYLE_COLOUR('Steel - Satin',#1120);
#1114=FILL_AREA_STYLE_COLOUR('Opaque(188,80,47)',#1121);
#1115=FILL_AREA_STYLE_COLOUR('Opaque(24,37,248)',#1122);
#1116=FILL_AREA_STYLE_COLOUR('Plastic - Matte (Yellow)',#1123);
#1117=FILL_AREA_STYLE_COLOUR('Opaque(190,188,186)',#1124);
#1118=FILL_AREA_STYLE_COLOUR('Matte Red',#1125);
#1119=FILL_AREA_STYLE_COLOUR('Plastic - Matte (Green)',#1126);
#1120=COLOUR_RGB('Steel - Satin',0.627450980392157,0.627450980392157,0.627450980392157);
#1121=COLOUR_RGB('Opaque(188,80,47)',0.737254901960784,0.313725490196078,
0.184313725490196);
#1122=COLOUR_RGB('Opaque(24,37,248)',0.0941176470588235,0.145098039215686,
0.972549019607843);
#1123=COLOUR_RGB('Plastic - Matte (Yellow)',0.909803921568627,0.67843137254902,
0.137254901960784);
#1124=COLOUR_RGB('Opaque(190,188,186)',0.745098039215686,0.737254901960784,
0.729411764705882);
#1125=COLOUR_RGB('Matte Red',1.,0.513725490196078,0.545098039215686);
#1126=COLOUR_RGB('Plastic - Matte (Green)',0.266666666666667,0.588235294117647,
0.282352941176471);
ENDSEC;
END-ISO-10303-21;
