ISO-10303-21;
HEADER;
/* Generated by software containing ST-Developer
 * from STEP Tools, Inc. (www.steptools.com) 
 */

FILE_DESCRIPTION(
/* description */ (''),
/* implementation_level */ '2;1');

FILE_NAME(
/* name */ 'Filament Guillotine-Cutter Housing.step',
/* time_stamp */ '2026-09-10T19:11:40-04:00',
/* author */ (''),
/* organization */ (''),
/* preprocessor_version */ 'ST-DEVELOPER v20.2',
/* originating_system */ 'Autodesk Translation Framework v15.15.0.0',
/* authorisation */ '');

FILE_SCHEMA (('AUTOMOTIVE_DESIGN { 1 0 10303 214 3 1 1 }'));
ENDSEC;

DATA;
#10=MECHANICAL_DESIGN_GEOMETRIC_PRESENTATION_REPRESENTATION('',(#13),#463);
#11=SHAPE_REPRESENTATION_RELATIONSHIP('SRR','None',#469,#12);
#12=ADVANCED_BREP_SHAPE_REPRESENTATION('',(#14),#462);
#13=STYLED_ITEM('',(#482),#14);
#14=MANIFOLD_SOLID_BREP('Cutter Housing',#287);
#15=CYLINDRICAL_SURFACE('',#301,1.15);
#16=CYLINDRICAL_SURFACE('',#305,1.15);
#17=CYLINDRICAL_SURFACE('',#307,1.5);
#18=CYLINDRICAL_SURFACE('',#308,1.5);
#19=ELLIPSE('',#293,1.26888460680687,1.15);
#20=ELLIPSE('',#299,1.26888460680687,1.15);
#21=CIRCLE('',#290,1.5);
#22=CIRCLE('',#291,1.5);
#23=CIRCLE('',#297,1.15);
#24=CIRCLE('',#303,1.5);
#25=CIRCLE('',#304,1.5);
#26=CIRCLE('',#306,1.15);
#27=FACE_BOUND('',#52,.T.);
#28=FACE_BOUND('',#53,.T.);
#29=FACE_BOUND('',#54,.T.);
#30=FACE_BOUND('',#56,.T.);
#31=FACE_BOUND('',#60,.T.);
#32=FACE_BOUND('',#62,.T.);
#33=FACE_BOUND('',#66,.T.);
#34=FACE_BOUND('',#67,.T.);
#35=FACE_BOUND('',#68,.T.);
#36=FACE_BOUND('',#74,.T.);
#37=FACE_OUTER_BOUND('',#51,.T.);
#38=FACE_OUTER_BOUND('',#55,.T.);
#39=FACE_OUTER_BOUND('',#57,.T.);
#40=FACE_OUTER_BOUND('',#58,.T.);
#41=FACE_OUTER_BOUND('',#59,.T.);
#42=FACE_OUTER_BOUND('',#61,.T.);
#43=FACE_OUTER_BOUND('',#63,.T.);
#44=FACE_OUTER_BOUND('',#64,.T.);
#45=FACE_OUTER_BOUND('',#65,.T.);
#46=FACE_OUTER_BOUND('',#69,.T.);
#47=FACE_OUTER_BOUND('',#70,.T.);
#48=FACE_OUTER_BOUND('',#71,.T.);
#49=FACE_OUTER_BOUND('',#72,.T.);
#50=FACE_OUTER_BOUND('',#73,.T.);
#51=EDGE_LOOP('',(#191,#192,#193,#194));
#52=EDGE_LOOP('',(#195,#196,#197,#198));
#53=EDGE_LOOP('',(#199));
#54=EDGE_LOOP('',(#200));
#55=EDGE_LOOP('',(#201,#202,#203,#204));
#56=EDGE_LOOP('',(#205));
#57=EDGE_LOOP('',(#206,#207,#208,#209));
#58=EDGE_LOOP('',(#210,#211,#212,#213));
#59=EDGE_LOOP('',(#214,#215,#216,#217));
#60=EDGE_LOOP('',(#218));
#61=EDGE_LOOP('',(#219,#220,#221,#222));
#62=EDGE_LOOP('',(#223));
#63=EDGE_LOOP('',(#224,#225,#226,#227));
#64=EDGE_LOOP('',(#228,#229,#230,#231));
#65=EDGE_LOOP('',(#232,#233,#234,#235));
#66=EDGE_LOOP('',(#236,#237,#238,#239));
#67=EDGE_LOOP('',(#240));
#68=EDGE_LOOP('',(#241));
#69=EDGE_LOOP('',(#242,#243,#244,#245));
#70=EDGE_LOOP('',(#246,#247,#248,#249));
#71=EDGE_LOOP('',(#250,#251,#252,#253));
#72=EDGE_LOOP('',(#254,#255,#256,#257));
#73=EDGE_LOOP('',(#258,#259,#260,#261));
#74=EDGE_LOOP('',(#262));
#75=LINE('',#389,#103);
#76=LINE('',#391,#104);
#77=LINE('',#393,#105);
#78=LINE('',#394,#106);
#79=LINE('',#397,#107);
#80=LINE('',#399,#108);
#81=LINE('',#401,#109);
#82=LINE('',#402,#110);
#83=LINE('',#409,#111);
#84=LINE('',#411,#112);
#85=LINE('',#412,#113);
#86=LINE('',#417,#114);
#87=LINE('',#418,#115);
#88=LINE('',#421,#116);
#89=LINE('',#423,#117);
#90=LINE('',#424,#118);
#91=LINE('',#427,#119);
#92=LINE('',#428,#120);
#93=LINE('',#433,#121);
#94=LINE('',#434,#122);
#95=LINE('',#438,#123);
#96=LINE('',#440,#124);
#97=LINE('',#443,#125);
#98=LINE('',#444,#126);
#99=LINE('',#451,#127);
#100=LINE('',#454,#128);
#101=LINE('',#456,#129);
#102=LINE('',#458,#130);
#103=VECTOR('',#315,10.);
#104=VECTOR('',#316,10.);
#105=VECTOR('',#317,10.);
#106=VECTOR('',#318,10.);
#107=VECTOR('',#319,10.);
#108=VECTOR('',#320,10.);
#109=VECTOR('',#321,10.);
#110=VECTOR('',#322,10.);
#111=VECTOR('',#329,10.);
#112=VECTOR('',#330,10.);
#113=VECTOR('',#331,10.);
#114=VECTOR('',#336,10.);
#115=VECTOR('',#337,10.);
#116=VECTOR('',#340,10.);
#117=VECTOR('',#341,10.);
#118=VECTOR('',#342,10.);
#119=VECTOR('',#345,10.);
#120=VECTOR('',#346,10.);
#121=VECTOR('',#351,10.);
#122=VECTOR('',#352,10.);
#123=VECTOR('',#357,10.);
#124=VECTOR('',#360,1.15);
#125=VECTOR('',#363,10.);
#126=VECTOR('',#364,10.);
#127=VECTOR('',#371,1.15);
#128=VECTOR('',#376,1.5);
#129=VECTOR('',#379,1.5);
#130=VECTOR('',#382,10.);
#131=VERTEX_POINT('',#387);
#132=VERTEX_POINT('',#388);
#133=VERTEX_POINT('',#390);
#134=VERTEX_POINT('',#392);
#135=VERTEX_POINT('',#395);
#136=VERTEX_POINT('',#396);
#137=VERTEX_POINT('',#398);
#138=VERTEX_POINT('',#400);
#139=VERTEX_POINT('',#403);
#140=VERTEX_POINT('',#405);
#141=VERTEX_POINT('',#408);
#142=VERTEX_POINT('',#410);
#143=VERTEX_POINT('',#413);
#144=VERTEX_POINT('',#416);
#145=VERTEX_POINT('',#420);
#146=VERTEX_POINT('',#422);
#147=VERTEX_POINT('',#426);
#148=VERTEX_POINT('',#429);
#149=VERTEX_POINT('',#432);
#150=VERTEX_POINT('',#435);
#151=VERTEX_POINT('',#442);
#152=VERTEX_POINT('',#445);
#153=VERTEX_POINT('',#447);
#154=VERTEX_POINT('',#450);
#155=EDGE_CURVE('',#131,#132,#75,.T.);
#156=EDGE_CURVE('',#133,#131,#76,.T.);
#157=EDGE_CURVE('',#134,#133,#77,.T.);
#158=EDGE_CURVE('',#132,#134,#78,.T.);
#159=EDGE_CURVE('',#135,#136,#79,.T.);
#160=EDGE_CURVE('',#137,#135,#80,.T.);
#161=EDGE_CURVE('',#138,#137,#81,.T.);
#162=EDGE_CURVE('',#136,#138,#82,.T.);
#163=EDGE_CURVE('',#139,#139,#21,.T.);
#164=EDGE_CURVE('',#140,#140,#22,.T.);
#165=EDGE_CURVE('',#138,#141,#83,.T.);
#166=EDGE_CURVE('',#142,#141,#84,.T.);
#167=EDGE_CURVE('',#136,#142,#85,.T.);
#168=EDGE_CURVE('',#143,#143,#19,.T.);
#169=EDGE_CURVE('',#137,#144,#86,.T.);
#170=EDGE_CURVE('',#141,#144,#87,.T.);
#171=EDGE_CURVE('',#145,#134,#88,.T.);
#172=EDGE_CURVE('',#146,#145,#89,.T.);
#173=EDGE_CURVE('',#132,#146,#90,.T.);
#174=EDGE_CURVE('',#147,#133,#91,.T.);
#175=EDGE_CURVE('',#147,#145,#92,.T.);
#176=EDGE_CURVE('',#148,#148,#23,.T.);
#177=EDGE_CURVE('',#135,#149,#93,.T.);
#178=EDGE_CURVE('',#144,#149,#94,.T.);
#179=EDGE_CURVE('',#150,#150,#20,.T.);
#180=EDGE_CURVE('',#149,#142,#95,.T.);
#181=EDGE_CURVE('',#148,#150,#96,.T.);
#182=EDGE_CURVE('',#146,#151,#97,.T.);
#183=EDGE_CURVE('',#151,#147,#98,.T.);
#184=EDGE_CURVE('',#152,#152,#24,.T.);
#185=EDGE_CURVE('',#153,#153,#25,.T.);
#186=EDGE_CURVE('',#143,#154,#99,.T.);
#187=EDGE_CURVE('',#154,#154,#26,.T.);
#188=EDGE_CURVE('',#153,#139,#100,.T.);
#189=EDGE_CURVE('',#152,#140,#101,.T.);
#190=EDGE_CURVE('',#151,#131,#102,.T.);
#191=ORIENTED_EDGE('',*,*,#155,.F.);
#192=ORIENTED_EDGE('',*,*,#156,.F.);
#193=ORIENTED_EDGE('',*,*,#157,.F.);
#194=ORIENTED_EDGE('',*,*,#158,.F.);
#195=ORIENTED_EDGE('',*,*,#159,.F.);
#196=ORIENTED_EDGE('',*,*,#160,.F.);
#197=ORIENTED_EDGE('',*,*,#161,.F.);
#198=ORIENTED_EDGE('',*,*,#162,.F.);
#199=ORIENTED_EDGE('',*,*,#163,.F.);
#200=ORIENTED_EDGE('',*,*,#164,.F.);
#201=ORIENTED_EDGE('',*,*,#162,.T.);
#202=ORIENTED_EDGE('',*,*,#165,.T.);
#203=ORIENTED_EDGE('',*,*,#166,.F.);
#204=ORIENTED_EDGE('',*,*,#167,.F.);
#205=ORIENTED_EDGE('',*,*,#168,.F.);
#206=ORIENTED_EDGE('',*,*,#161,.T.);
#207=ORIENTED_EDGE('',*,*,#169,.T.);
#208=ORIENTED_EDGE('',*,*,#170,.F.);
#209=ORIENTED_EDGE('',*,*,#165,.F.);
#210=ORIENTED_EDGE('',*,*,#158,.T.);
#211=ORIENTED_EDGE('',*,*,#171,.F.);
#212=ORIENTED_EDGE('',*,*,#172,.F.);
#213=ORIENTED_EDGE('',*,*,#173,.F.);
#214=ORIENTED_EDGE('',*,*,#157,.T.);
#215=ORIENTED_EDGE('',*,*,#174,.F.);
#216=ORIENTED_EDGE('',*,*,#175,.T.);
#217=ORIENTED_EDGE('',*,*,#171,.T.);
#218=ORIENTED_EDGE('',*,*,#176,.T.);
#219=ORIENTED_EDGE('',*,*,#160,.T.);
#220=ORIENTED_EDGE('',*,*,#177,.T.);
#221=ORIENTED_EDGE('',*,*,#178,.F.);
#222=ORIENTED_EDGE('',*,*,#169,.F.);
#223=ORIENTED_EDGE('',*,*,#179,.F.);
#224=ORIENTED_EDGE('',*,*,#159,.T.);
#225=ORIENTED_EDGE('',*,*,#167,.T.);
#226=ORIENTED_EDGE('',*,*,#180,.F.);
#227=ORIENTED_EDGE('',*,*,#177,.F.);
#228=ORIENTED_EDGE('',*,*,#176,.F.);
#229=ORIENTED_EDGE('',*,*,#181,.T.);
#230=ORIENTED_EDGE('',*,*,#179,.T.);
#231=ORIENTED_EDGE('',*,*,#181,.F.);
#232=ORIENTED_EDGE('',*,*,#182,.F.);
#233=ORIENTED_EDGE('',*,*,#172,.T.);
#234=ORIENTED_EDGE('',*,*,#175,.F.);
#235=ORIENTED_EDGE('',*,*,#183,.F.);
#236=ORIENTED_EDGE('',*,*,#180,.T.);
#237=ORIENTED_EDGE('',*,*,#166,.T.);
#238=ORIENTED_EDGE('',*,*,#170,.T.);
#239=ORIENTED_EDGE('',*,*,#178,.T.);
#240=ORIENTED_EDGE('',*,*,#184,.T.);
#241=ORIENTED_EDGE('',*,*,#185,.T.);
#242=ORIENTED_EDGE('',*,*,#168,.T.);
#243=ORIENTED_EDGE('',*,*,#186,.T.);
#244=ORIENTED_EDGE('',*,*,#187,.T.);
#245=ORIENTED_EDGE('',*,*,#186,.F.);
#246=ORIENTED_EDGE('',*,*,#185,.F.);
#247=ORIENTED_EDGE('',*,*,#188,.T.);
#248=ORIENTED_EDGE('',*,*,#163,.T.);
#249=ORIENTED_EDGE('',*,*,#188,.F.);
#250=ORIENTED_EDGE('',*,*,#184,.F.);
#251=ORIENTED_EDGE('',*,*,#189,.T.);
#252=ORIENTED_EDGE('',*,*,#164,.T.);
#253=ORIENTED_EDGE('',*,*,#189,.F.);
#254=ORIENTED_EDGE('',*,*,#156,.T.);
#255=ORIENTED_EDGE('',*,*,#190,.F.);
#256=ORIENTED_EDGE('',*,*,#183,.T.);
#257=ORIENTED_EDGE('',*,*,#174,.T.);
#258=ORIENTED_EDGE('',*,*,#155,.T.);
#259=ORIENTED_EDGE('',*,*,#173,.T.);
#260=ORIENTED_EDGE('',*,*,#182,.T.);
#261=ORIENTED_EDGE('',*,*,#190,.T.);
#262=ORIENTED_EDGE('',*,*,#187,.F.);
#263=PLANE('',#289);
#264=PLANE('',#292);
#265=PLANE('',#294);
#266=PLANE('',#295);
#267=PLANE('',#296);
#268=PLANE('',#298);
#269=PLANE('',#300);
#270=PLANE('',#302);
#271=PLANE('',#309);
#272=PLANE('',#310);
#273=ADVANCED_FACE('',(#37,#27,#28,#29),#263,.T.);
#274=ADVANCED_FACE('',(#38,#30),#264,.F.);
#275=ADVANCED_FACE('',(#39),#265,.F.);
#276=ADVANCED_FACE('',(#40),#266,.T.);
#277=ADVANCED_FACE('',(#41,#31),#267,.T.);
#278=ADVANCED_FACE('',(#42,#32),#268,.F.);
#279=ADVANCED_FACE('',(#43),#269,.F.);
#280=ADVANCED_FACE('',(#44),#15,.F.);
#281=ADVANCED_FACE('',(#45,#33,#34,#35),#270,.T.);
#282=ADVANCED_FACE('',(#46),#16,.F.);
#283=ADVANCED_FACE('',(#47),#17,.F.);
#284=ADVANCED_FACE('',(#48),#18,.F.);
#285=ADVANCED_FACE('',(#49),#271,.T.);
#286=ADVANCED_FACE('',(#50,#36),#272,.F.);
#287=CLOSED_SHELL('',(#273,#274,#275,#276,#277,#278,#279,#280,#281,#282,
#283,#284,#285,#286));
#288=AXIS2_PLACEMENT_3D('',#385,#311,#312);
#289=AXIS2_PLACEMENT_3D('',#386,#313,#314);
#290=AXIS2_PLACEMENT_3D('',#404,#323,#324);
#291=AXIS2_PLACEMENT_3D('',#406,#325,#326);
#292=AXIS2_PLACEMENT_3D('',#407,#327,#328);
#293=AXIS2_PLACEMENT_3D('',#414,#332,#333);
#294=AXIS2_PLACEMENT_3D('',#415,#334,#335);
#295=AXIS2_PLACEMENT_3D('',#419,#338,#339);
#296=AXIS2_PLACEMENT_3D('',#425,#343,#344);
#297=AXIS2_PLACEMENT_3D('',#430,#347,#348);
#298=AXIS2_PLACEMENT_3D('',#431,#349,#350);
#299=AXIS2_PLACEMENT_3D('',#436,#353,#354);
#300=AXIS2_PLACEMENT_3D('',#437,#355,#356);
#301=AXIS2_PLACEMENT_3D('',#439,#358,#359);
#302=AXIS2_PLACEMENT_3D('',#441,#361,#362);
#303=AXIS2_PLACEMENT_3D('',#446,#365,#366);
#304=AXIS2_PLACEMENT_3D('',#448,#367,#368);
#305=AXIS2_PLACEMENT_3D('',#449,#369,#370);
#306=AXIS2_PLACEMENT_3D('',#452,#372,#373);
#307=AXIS2_PLACEMENT_3D('',#453,#374,#375);
#308=AXIS2_PLACEMENT_3D('',#455,#377,#378);
#309=AXIS2_PLACEMENT_3D('',#457,#380,#381);
#310=AXIS2_PLACEMENT_3D('',#459,#383,#384);
#311=DIRECTION('axis',(0.,0.,1.));
#312=DIRECTION('refdir',(1.,0.,0.));
#313=DIRECTION('center_axis',(0.,0.,-1.));
#314=DIRECTION('ref_axis',(1.,0.,0.));
#315=DIRECTION('',(-1.,0.,0.));
#316=DIRECTION('',(0.,1.,0.));
#317=DIRECTION('',(1.,0.,0.));
#318=DIRECTION('',(0.,-1.,0.));
#319=DIRECTION('',(-0.4226182617407,0.90630778703665,0.));
#320=DIRECTION('',(-0.90630778703665,-0.422618261740699,0.));
#321=DIRECTION('',(0.422618261740699,-0.90630778703665,0.));
#322=DIRECTION('',(0.90630778703665,0.422618261740699,0.));
#323=DIRECTION('center_axis',(0.,0.,-1.));
#324=DIRECTION('ref_axis',(1.,0.,0.));
#325=DIRECTION('center_axis',(0.,0.,-1.));
#326=DIRECTION('ref_axis',(1.,0.,0.));
#327=DIRECTION('center_axis',(-0.422618261740699,0.90630778703665,0.));
#328=DIRECTION('ref_axis',(-0.90630778703665,-0.422618261740699,0.));
#329=DIRECTION('',(0.,0.,1.));
#330=DIRECTION('',(0.90630778703665,0.422618261740699,0.));
#331=DIRECTION('',(0.,0.,1.));
#332=DIRECTION('center_axis',(0.422618261740699,-0.90630778703665,0.));
#333=DIRECTION('ref_axis',(0.90630778703665,0.422618261740699,0.));
#334=DIRECTION('center_axis',(0.90630778703665,0.422618261740699,0.));
#335=DIRECTION('ref_axis',(-0.422618261740699,0.90630778703665,0.));
#336=DIRECTION('',(0.,0.,1.));
#337=DIRECTION('',(0.422618261740699,-0.90630778703665,0.));
#338=DIRECTION('center_axis',(-1.,0.,-1.94775969232484E-16));
#339=DIRECTION('ref_axis',(1.94775969232484E-16,6.27807384248741E-33,-1.));
#340=DIRECTION('',(1.94775969232484E-16,6.27807384248741E-33,-1.));
#341=DIRECTION('',(0.,-1.,0.));
#342=DIRECTION('',(-1.94775969232484E-16,-6.27807384248741E-33,1.));
#343=DIRECTION('center_axis',(0.,-1.,-6.27807384248741E-33));
#344=DIRECTION('ref_axis',(1.,0.,0.));
#345=DIRECTION('',(0.,0.,-1.));
#346=DIRECTION('',(-1.,-1.77569097655939E-33,0.));
#347=DIRECTION('center_axis',(0.,1.,0.));
#348=DIRECTION('ref_axis',(1.,0.,0.));
#349=DIRECTION('center_axis',(0.422618261740699,-0.90630778703665,0.));
#350=DIRECTION('ref_axis',(0.90630778703665,0.422618261740699,0.));
#351=DIRECTION('',(0.,0.,1.));
#352=DIRECTION('',(-0.90630778703665,-0.422618261740699,0.));
#353=DIRECTION('center_axis',(-0.422618261740699,0.90630778703665,0.));
#354=DIRECTION('ref_axis',(0.90630778703665,0.422618261740699,0.));
#355=DIRECTION('center_axis',(-0.90630778703665,-0.4226182617407,0.));
#356=DIRECTION('ref_axis',(0.4226182617407,-0.90630778703665,0.));
#357=DIRECTION('',(-0.4226182617407,0.90630778703665,0.));
#358=DIRECTION('center_axis',(0.,-1.,0.));
#359=DIRECTION('ref_axis',(1.,0.,0.));
#360=DIRECTION('',(0.,1.,0.));
#361=DIRECTION('center_axis',(0.,0.,1.));
#362=DIRECTION('ref_axis',(-1.,-1.77569097655939E-33,0.));
#363=DIRECTION('',(1.,1.77569097655939E-33,0.));
#364=DIRECTION('',(0.,-1.,0.));
#365=DIRECTION('center_axis',(0.,0.,-1.));
#366=DIRECTION('ref_axis',(1.,0.,0.));
#367=DIRECTION('center_axis',(0.,0.,-1.));
#368=DIRECTION('ref_axis',(1.,0.,0.));
#369=DIRECTION('center_axis',(0.,-1.,0.));
#370=DIRECTION('ref_axis',(1.,0.,0.));
#371=DIRECTION('',(0.,1.,0.));
#372=DIRECTION('center_axis',(0.,1.,0.));
#373=DIRECTION('ref_axis',(1.,0.,0.));
#374=DIRECTION('center_axis',(0.,0.,-1.));
#375=DIRECTION('ref_axis',(1.,0.,0.));
#376=DIRECTION('',(0.,0.,-1.));
#377=DIRECTION('center_axis',(0.,0.,-1.));
#378=DIRECTION('ref_axis',(1.,0.,0.));
#379=DIRECTION('',(0.,0.,-1.));
#380=DIRECTION('center_axis',(1.,0.,-3.89551938464967E-16));
#381=DIRECTION('ref_axis',(3.89551938464967E-16,-4.75791878930448E-35,1.));
#382=DIRECTION('',(0.,0.,-1.));
#383=DIRECTION('center_axis',(0.,-1.,-6.27807384248741E-33));
#384=DIRECTION('ref_axis',(1.,0.,0.));
#385=CARTESIAN_POINT('',(0.,0.,0.));
#386=CARTESIAN_POINT('Origin',(-9.99999999999985,5.25000007450554,38.4499985694886));
#387=CARTESIAN_POINT('',(10.0000000000001,5.25000007450554,38.4499985694886));
#388=CARTESIAN_POINT('',(-9.99999999999985,5.25000007450554,38.4499985694886));
#389=CARTESIAN_POINT('',(-4.99999999999985,5.25000007450554,38.4499985694886));
#390=CARTESIAN_POINT('',(10.0000000000001,-4.99999992549446,38.4499985694886));
#391=CARTESIAN_POINT('',(10.0000000000001,5.25000007450554,38.4499985694886));
#392=CARTESIAN_POINT('',(-9.99999999999985,-4.99999992549446,38.4499985694886));
#393=CARTESIAN_POINT('',(-4.99999999999985,-4.99999992549446,38.4499985694886));
#394=CARTESIAN_POINT('',(-9.99999999999985,5.25000007450554,38.4499985694886));
#395=CARTESIAN_POINT('',(-2.2963050993691,-2.1741625722586,38.4499985694886));
#396=CARTESIAN_POINT('',(-3.1415416228505,-0.361546998185296,38.4499985694886));
#397=CARTESIAN_POINT('',(-4.82869681362607,3.25656898440654,38.4499985694886));
#398=CARTESIAN_POINT('',(3.1415416228508,0.361546998185602,38.4499985694886));
#399=CARTESIAN_POINT('',(-4.03837909716821,-2.98650501850501,38.4499985694886));
#400=CARTESIAN_POINT('',(2.2963050993694,2.1741625722589,38.4499985694886));
#401=CARTESIAN_POINT('',(1.03176817033453,4.88597076781409,38.4499985694886));
#402=CARTESIAN_POINT('',(-2.16469225953966,0.0939653407903873,38.4499985694886));
#403=CARTESIAN_POINT('',(5.25000000000015,3.72528319303456E-8,38.4499985694886));
#404=CARTESIAN_POINT('Origin',(6.75000000000015,3.7252832071114E-8,38.4499985694886));
#405=CARTESIAN_POINT('',(-8.24999999999985,3.72528283221207E-8,38.4499985694886));
#406=CARTESIAN_POINT('Origin',(-6.74999999999985,3.72528285184003E-8,38.4499985694886));
#407=CARTESIAN_POINT('Origin',(2.2963050993694,2.1741625722589,30.2999985694886));
#408=CARTESIAN_POINT('',(2.2963050993694,2.1741625722589,45.6499985694886));
#409=CARTESIAN_POINT('',(2.2963050993694,2.1741625722589,30.2999985694886));
#410=CARTESIAN_POINT('',(-3.1415416228505,-0.361546998185296,45.6499985694886));
#411=CARTESIAN_POINT('',(6.04924578889304,3.92418755638528,45.6499985694886));
#412=CARTESIAN_POINT('',(-3.1415416228505,-0.361546998185296,30.2999985694886));
#413=CARTESIAN_POINT('',(-1.14999999999985,0.567124112084397,42.7999985694886));
#414=CARTESIAN_POINT('Origin',(1.49137279339515E-13,1.10337791896265,42.7999985694886));
#415=CARTESIAN_POINT('Origin',(3.1415416228508,0.361546998185602,30.2999985694886));
#416=CARTESIAN_POINT('',(3.1415416228508,0.361546998185601,45.6499985694886));
#417=CARTESIAN_POINT('',(3.1415416228508,0.361546998185601,30.2999985694886));
#418=CARTESIAN_POINT('',(2.81783012190183,1.0557485522192,45.6499985694886));
#419=CARTESIAN_POINT('Origin',(-9.99999999999985,5.25000007450554,45.6499985694886));
#420=CARTESIAN_POINT('',(-9.99999999999985,-4.99999992549446,45.6499985694886));
#421=CARTESIAN_POINT('',(-9.99999999999985,-4.99999992549446,39.9499985694886));
#422=CARTESIAN_POINT('',(-9.99999999999985,5.25000007450554,45.6499985694886));
#423=CARTESIAN_POINT('',(-9.99999999999985,5.25000007450554,45.6499985694886));
#424=CARTESIAN_POINT('',(-9.99999999999985,5.25000007450554,39.9499985694886));
#425=CARTESIAN_POINT('Origin',(1.50435219836709E-13,-4.99999992549446,42.7999985694886));
#426=CARTESIAN_POINT('',(10.0000000000002,-4.99999992549446,45.6499985694886));
#427=CARTESIAN_POINT('',(10.0000000000001,-4.99999992549446,39.9499985694886));
#428=CARTESIAN_POINT('',(-9.99999999999985,-4.99999992549446,45.6499985694886));
#429=CARTESIAN_POINT('',(-1.14999999999985,-4.99999992549446,42.7999985694886));
#430=CARTESIAN_POINT('Origin',(1.49137279339515E-13,-4.99999992549446,42.7999985694886));
#431=CARTESIAN_POINT('Origin',(-2.2963050993691,-2.17416257225859,30.2999985694886));
#432=CARTESIAN_POINT('',(-2.2963050993691,-2.1741625722586,45.6499985694886));
#433=CARTESIAN_POINT('',(-2.2963050993691,-2.1741625722586,30.2999985694886));
#434=CARTESIAN_POINT('',(4.17555895126449,0.843717197089879,45.6499985694886));
#435=CARTESIAN_POINT('',(-1.14999999999985,-1.63963172584058,42.7999985694886));
#436=CARTESIAN_POINT('Origin',(1.49137279339515E-13,-1.10337791896234,42.7999985694886));
#437=CARTESIAN_POINT('Origin',(-3.1415416228505,-0.361546998185296,30.2999985694886));
#438=CARTESIAN_POINT('',(-3.04263486205877,-0.573653231188354,45.6499985694886));
#439=CARTESIAN_POINT('Origin',(1.49137279339515E-13,5.25000007450554,42.7999985694886));
#440=CARTESIAN_POINT('',(-1.14999999999985,5.25000007450554,42.7999985694886));
#441=CARTESIAN_POINT('Origin',(10.0000000000002,5.25000007450554,45.6499985694886));
#442=CARTESIAN_POINT('',(10.0000000000002,5.25000007450554,45.6499985694886));
#443=CARTESIAN_POINT('',(-9.99999999999985,5.25000007450554,45.6499985694886));
#444=CARTESIAN_POINT('',(10.0000000000002,5.25000007450554,45.6499985694886));
#445=CARTESIAN_POINT('',(-8.24999999999985,3.72528287020973E-8,45.6499985694886));
#446=CARTESIAN_POINT('Origin',(-6.74999999999985,3.72528285184003E-8,45.6499985694886));
#447=CARTESIAN_POINT('',(5.25000000000015,3.7252832254811E-8,45.6499985694886));
#448=CARTESIAN_POINT('Origin',(6.75000000000015,3.7252832071114E-8,45.6499985694886));
#449=CARTESIAN_POINT('Origin',(1.49137279339515E-13,5.25000007450554,42.7999985694886));
#450=CARTESIAN_POINT('',(-1.14999999999985,5.25000007450554,42.7999985694886));
#451=CARTESIAN_POINT('',(-1.14999999999985,5.25000007450554,42.7999985694886));
#452=CARTESIAN_POINT('Origin',(1.49137279339515E-13,5.25000007450554,42.7999985694886));
#453=CARTESIAN_POINT('Origin',(6.75000000000015,3.7252832071114E-8,45.7999985694886));
#454=CARTESIAN_POINT('',(5.25000000000015,3.7252832254811E-8,45.7999985694886));
#455=CARTESIAN_POINT('Origin',(-6.74999999999985,3.72528285184003E-8,45.7999985694886));
#456=CARTESIAN_POINT('',(-8.24999999999985,3.72528287020973E-8,45.7999985694886));
#457=CARTESIAN_POINT('Origin',(10.0000000000001,5.25000007450554,39.9499985694886));
#458=CARTESIAN_POINT('',(10.0000000000001,5.25000007450554,39.9499985694886));
#459=CARTESIAN_POINT('Origin',(1.50435219836709E-13,5.25000007450554,42.7999985694886));
#460=UNCERTAINTY_MEASURE_WITH_UNIT(LENGTH_MEASURE(0.01),#464,
'DISTANCE_ACCURACY_VALUE',
'Maximum model space distance between geometric entities at asserted c
onnectivities');
#461=UNCERTAINTY_MEASURE_WITH_UNIT(LENGTH_MEASURE(0.01),#464,
'DISTANCE_ACCURACY_VALUE',
'Maximum model space distance between geometric entities at asserted c
onnectivities');
#462=(
GEOMETRIC_REPRESENTATION_CONTEXT(3)
GLOBAL_UNCERTAINTY_ASSIGNED_CONTEXT((#460))
GLOBAL_UNIT_ASSIGNED_CONTEXT((#464,#465,#466))
REPRESENTATION_CONTEXT('','3D')
);
#463=(
GEOMETRIC_REPRESENTATION_CONTEXT(3)
GLOBAL_UNCERTAINTY_ASSIGNED_CONTEXT((#461))
GLOBAL_UNIT_ASSIGNED_CONTEXT((#464,#465,#466))
REPRESENTATION_CONTEXT('','3D')
);
#464=(
LENGTH_UNIT()
NAMED_UNIT(*)
SI_UNIT(.MILLI.,.METRE.)
);
#465=(
NAMED_UNIT(*)
PLANE_ANGLE_UNIT()
SI_UNIT($,.RADIAN.)
);
#466=(
NAMED_UNIT(*)
SI_UNIT($,.STERADIAN.)
SOLID_ANGLE_UNIT()
);
#467=SHAPE_DEFINITION_REPRESENTATION(#468,#469);
#468=PRODUCT_DEFINITION_SHAPE('',$,#471);
#469=SHAPE_REPRESENTATION('',(#288),#462);
#470=PRODUCT_DEFINITION_CONTEXT('part definition',#475,'design');
#471=PRODUCT_DEFINITION('Zee Cutter2','Filament Guillotine',#472,#470);
#472=PRODUCT_DEFINITION_FORMATION('',$,#477);
#473=PRODUCT_RELATED_PRODUCT_CATEGORY('Filament Guillotine',
'Filament Guillotine',(#477));
#474=APPLICATION_PROTOCOL_DEFINITION('international standard',
'automotive_design',2009,#475);
#475=APPLICATION_CONTEXT(
'Core Data for Automotive Mechanical Design Process');
#476=PRODUCT_CONTEXT('part definition',#475,'mechanical');
#477=PRODUCT('Zee Cutter2','Filament Guillotine',$,(#476));
#478=PRESENTATION_STYLE_ASSIGNMENT((#485));
#479=PRESENTATION_STYLE_ASSIGNMENT((#486));
#480=PRESENTATION_STYLE_ASSIGNMENT((#487));
#481=PRESENTATION_STYLE_ASSIGNMENT((#488));
#482=PRESENTATION_STYLE_ASSIGNMENT((#489));
#483=PRESENTATION_STYLE_ASSIGNMENT((#490));
#484=PRESENTATION_STYLE_ASSIGNMENT((#491));
#485=SURFACE_STYLE_USAGE(.BOTH.,#492);
#486=SURFACE_STYLE_USAGE(.BOTH.,#493);
#487=SURFACE_STYLE_USAGE(.BOTH.,#494);
#488=SURFACE_STYLE_USAGE(.BOTH.,#495);
#489=SURFACE_STYLE_USAGE(.BOTH.,#496);
#490=SURFACE_STYLE_USAGE(.BOTH.,#497);
#491=SURFACE_STYLE_USAGE(.BOTH.,#498);
#492=SURFACE_SIDE_STYLE('',(#499));
#493=SURFACE_SIDE_STYLE('',(#500));
#494=SURFACE_SIDE_STYLE('',(#501));
#495=SURFACE_SIDE_STYLE('',(#502));
#496=SURFACE_SIDE_STYLE('',(#503));
#497=SURFACE_SIDE_STYLE('',(#504));
#498=SURFACE_SIDE_STYLE('',(#505));
#499=SURFACE_STYLE_FILL_AREA(#506);
#500=SURFACE_STYLE_FILL_AREA(#507);
#501=SURFACE_STYLE_FILL_AREA(#508);
#502=SURFACE_STYLE_FILL_AREA(#509);
#503=SURFACE_STYLE_FILL_AREA(#510);
#504=SURFACE_STYLE_FILL_AREA(#511);
#505=SURFACE_STYLE_FILL_AREA(#512);
#506=FILL_AREA_STYLE('Steel - Satin',(#513));
#507=FILL_AREA_STYLE('Opaque(188,80,47)',(#514));
#508=FILL_AREA_STYLE('Opaque(24,37,248)',(#515));
#509=FILL_AREA_STYLE('Plastic - Matte (Yellow)',(#516));
#510=FILL_AREA_STYLE('Opaque(190,188,186)',(#517));
#511=FILL_AREA_STYLE('Matte Red',(#518));
#512=FILL_AREA_STYLE('Plastic - Matte (Green)',(#519));
#513=FILL_AREA_STYLE_COLOUR('Steel - Satin',#520);
#514=FILL_AREA_STYLE_COLOUR('Opaque(188,80,47)',#521);
#515=FILL_AREA_STYLE_COLOUR('Opaque(24,37,248)',#522);
#516=FILL_AREA_STYLE_COLOUR('Plastic - Matte (Yellow)',#523);
#517=FILL_AREA_STYLE_COLOUR('Opaque(190,188,186)',#524);
#518=FILL_AREA_STYLE_COLOUR('Matte Red',#525);
#519=FILL_AREA_STYLE_COLOUR('Plastic - Matte (Green)',#526);
#520=COLOUR_RGB('Steel - Satin',0.627450980392157,0.627450980392157,0.627450980392157);
#521=COLOUR_RGB('Opaque(188,80,47)',0.737254901960784,0.313725490196078,
0.184313725490196);
#522=COLOUR_RGB('Opaque(24,37,248)',0.0941176470588235,0.145098039215686,
0.972549019607843);
#523=COLOUR_RGB('Plastic - Matte (Yellow)',0.909803921568627,0.67843137254902,
0.137254901960784);
#524=COLOUR_RGB('Opaque(190,188,186)',0.745098039215686,0.737254901960784,
0.729411764705882);
#525=COLOUR_RGB('Matte Red',1.,0.513725490196078,0.545098039215686);
#526=COLOUR_RGB('Plastic - Matte (Green)',0.266666666666667,0.588235294117647,
0.282352941176471);
ENDSEC;
END-ISO-10303-21;
